<?xml version="1.0" encoding="UTF-8" standalone="no"?>
<!-- Created with Inkscape (http://www.inkscape.org/) -->

<svg width="399.577" height="156.3264" viewBox="0 0 105.72141 41.361361" version="1.1" id="svg1" inkscape:version="1.3.2 (091e20ef0f, 2023-11-25, custom)" sodipodi:docname="logo.svg" xmlns:inkscape="http://www.inkscape.org/namespaces/inkscape" xmlns:sodipodi="http://sodipodi.sourceforge.net/DTD/sodipodi-0.dtd" xmlns="http://www.w3.org/2000/svg" xmlns:svg="http://www.w3.org/2000/svg">
  <sodipodi:namedview id="namedview1" pagecolor="#c3c3c3" bordercolor="#000000" borderopacity="0.25" inkscape:showpageshadow="2" inkscape:pageopacity="0.0" inkscape:pagecheckerboard="true" inkscape:deskcolor="#767676" inkscape:document-units="px" inkscape:zoom="1.6000176" inkscape:cx="224.06004" inkscape:cy="69.06174" inkscape:current-layer="layer1" />
  <defs id="defs1" />
  <g inkscape:label="Layer 1" inkscape:groupmode="layer" id="layer1" transform="translate(-15.910965,-85.523843)">
    <path style="font-weight:normal;font-size:24.9542px;font-family:AmazDooMLeft;-inkscape-font-specification:AmazDooMLeft;text-align:center;text-anchor:middle;fill:#f9f9f9;stroke:#444444;stroke-width:1.05833;stroke-linecap:square;stroke-linejoin:round;stroke-opacity:1" d="m 63.318848,86.053008 2.259167,2.316271 V 111.8923 l -8.283603,6.22819 -6.978313,-5.71347 V 88.523698 l 2.158759,-2.47069 z m -7.22933,6.125252 v 16.05948 l 3.363647,2.93394 V 92.17826 Z" id="path14" />
    <path style="font-weight:normal;font-size:24.9542px;font-family:AmazDooMLeft;-inkscape-font-specification:AmazDooMLeft;text-align:center;text-anchor:middle;fill:#f9f9f9;stroke:#444444;stroke-width:1.05833;stroke-linecap:square;stroke-linejoin:round;stroke-opacity:1" d="m 47.002616,86.053008 2.259164,2.316271 V 111.8923 l -8.283601,6.22819 -6.978312,-5.71347 V 88.523698 l 2.158756,-2.47069 z m -7.229331,6.125252 v 16.05948 l 3.363647,2.93394 V 92.17826 Z" id="path13" />
    <path style="font-weight:normal;font-size:24.9542px;font-family:AmazDooMLeft;-inkscape-font-specification:AmazDooMLeft;text-align:center;text-anchor:middle;fill:#f9f9f9;stroke:#444444;stroke-width:1.05833;stroke-linecap:square;stroke-linejoin:round;stroke-opacity:1" d="m 22.955052,105.35526 v 7.41207 l 3.966092,-3.24278 v -2.26479 z m 9.287673,7.41207 0.451833,0.41178 -0.451833,0.36031 v -0.0515 l -15.613344,12.76521 0.70285,-2.98539 V 87.339825 l -1.004074,-1.286817 h 12.500716 l 3.413852,2.110381 v 10.860736 l -5.271386,3.088365 5.271386,2.88247 z m -9.388087,-13.84615 4.016293,-2.47069 v -4.323704 h -4.016293 z" id="path3" />
    <path style="font-weight:normal;font-size:24.9542px;font-family:AmazDooMRight;-inkscape-font-specification:AmazDooMRight;text-align:center;text-anchor:middle;fill:#aa0000;stroke:#2c0000;stroke-width:1.05833;stroke-linecap:square;stroke-linejoin:round;stroke-opacity:1" d="m 111.31357,92.126786 v 17.191874 l 3.36365,2.62511 V 92.126786 Z m 9.38809,32.942524 0.40163,0.97798 -15.31212,-12.50787 V 87.339825 l -1.00407,-1.286817 h 12.50071 l 3.41385,2.110381 z" id="path16" />
    <path style="font-weight:normal;font-size:24.9542px;font-family:AmazDooMRight;-inkscape-font-specification:AmazDooMRight;text-align:center;text-anchor:middle;fill:#aa0000;stroke:#2c0000;stroke-width:1.05833;stroke-linecap:square;stroke-linejoin:round;stroke-opacity:1" d="m 89.073336,106.95092 8.534625,-14.824134 h -2.510184 v 1.853017 h -6.024441 v -6.639978 l -1.004073,-1.286817 h 12.500717 l 3.41385,2.110381 v 3.963397 l -9.28768,14.978554 v 2.77952 l 9.33788,6.89735 v 6.5885 l 0.70285,2.98541 -15.663544,-12.35344 z" id="path15" />
    <path style="font-weight:normal;font-size:24.9542px;font-family:AmazDooMRight;-inkscape-font-specification:AmazDooMRight;text-align:center;text-anchor:middle;fill:#f9f9f9;stroke:#444444;stroke-width:1.05833;stroke-linecap:square;stroke-linejoin:round;stroke-opacity:1" d="m 81.342016,86.053008 h 6.124848 V 111.8923 l -6.124848,4.58108 v -14.77267 l -4.016295,10.34601 -4.518331,-10.24307 v 14.66973 L 66.682541,111.8923 V 86.053008 h 6.124849 l 4.016294,9.368029 z" id="path4" />
  </g>
</svg>
