<?xml version="1.0" encoding="UTF-8" standalone="no"?>
<!-- Created with Inkscape (http://www.inkscape.org/) -->

<svg width="32" height="32.000011" viewBox="0 0 8.4666665 8.4666695" version="1.1" id="svg1" inkscape:version="1.3.2 (091e20ef0f, 2023-11-25, custom)" sodipodi:docname="ui-ammo.svg" xmlns:inkscape="http://www.inkscape.org/namespaces/inkscape" xmlns:sodipodi="http://sodipodi.sourceforge.net/DTD/sodipodi-0.dtd" xmlns="http://www.w3.org/2000/svg" xmlns:svg="http://www.w3.org/2000/svg">
  <sodipodi:namedview id="namedview1" pagecolor="#c3c3c3" bordercolor="#000000" borderopacity="0.25" inkscape:showpageshadow="2" inkscape:pageopacity="0.0" inkscape:pagecheckerboard="true" inkscape:deskcolor="#767676" inkscape:document-units="px" inkscape:zoom="16.428527" inkscape:cx="10.104375" inkscape:cy="16.343522" inkscape:current-layer="layer1" />
  <defs id="defs1" />
  <g inkscape:label="Layer 1" inkscape:groupmode="layer" id="layer1" transform="translate(-44.276684,-115.70236)">
    <g id="g5" transform="matrix(1.3110283,0,0,1.1030773,-14.721381,-11.926282)">
      <path id="rect2" style="fill:#f9f9f9;stroke-width:0.132292;stroke-linecap:square" d="m 45.645772,115.70236 -0.436149,0.95911 -0.208256,0.98754 h 1.288293 l -0.207739,-0.98754 z m -0.644405,2.12597 v 3.8654 h 1.288293 v -3.8654 z m 0,4.15633 v 1.3932 h 1.288293 v -1.3932 z" />
      <path id="path5" style="fill:#f9f9f9;stroke-width:0.132292;stroke-linecap:square" d="m 48.230643,115.70236 -0.436149,0.95911 -0.208256,0.98754 h 1.288293 l -0.207739,-0.98754 z m -0.644405,2.12597 v 3.8654 h 1.288293 v -3.8654 z m 0,4.15633 v 1.3932 h 1.288293 v -1.3932 z" />
      <path id="path4" style="fill:#f9f9f9;stroke-width:0.132292;stroke-linecap:square" d="m 50.815514,115.70236 -0.436149,0.95911 -0.208256,0.98754 h 1.288293 l -0.207739,-0.98754 z m -0.644405,2.12597 v 3.8654 h 1.288293 v -3.8654 z m 0,4.15633 v 1.3932 h 1.288293 v -1.3932 z" />
    </g>
  </g>
</svg>
