<?xml version="1.0" encoding="UTF-8" standalone="no"?>
<!-- Created with Inkscape (http://www.inkscape.org/) -->

<svg width="32" height="32.000011" viewBox="0 0 8.4666665 8.4666695" version="1.1" id="svg1" inkscape:version="1.3.2 (091e20ef0f, 2023-11-25, custom)" sodipodi:docname="ui-bullet.svg" xml:space="preserve" xmlns:inkscape="http://www.inkscape.org/namespaces/inkscape" xmlns:sodipodi="http://sodipodi.sourceforge.net/DTD/sodipodi-0.dtd" xmlns="http://www.w3.org/2000/svg" xmlns:svg="http://www.w3.org/2000/svg"><sodipodi:namedview id="namedview1" pagecolor="#c3c3c3" bordercolor="#000000" borderopacity="0.25" inkscape:showpageshadow="2" inkscape:pageopacity="0.0" inkscape:pagecheckerboard="true" inkscape:deskcolor="#767676" inkscape:document-units="px" inkscape:zoom="16.428527" inkscape:cx="8.5826318" inkscape:cy="13.360906" inkscape:current-layer="g1" /><defs id="defs1" /><g inkscape:label="Layer 1" inkscape:groupmode="layer" id="layer1" transform="translate(-44.276684,-115.70236)"><g id="g1" transform="translate(38.227297,106.41331)"><g id="g7" transform="translate(-0.62691286,0.12496976)"><path id="rect2" style="fill:#f9f9f9;stroke-width:0.15909;stroke-linecap:square" d="m 8.1476061,10.564325 c -0.5556272,0 -0.8443929,1.437183 -0.8443929,1.437183 H 8.991999 c 0,0 -0.2887657,-1.437183 -0.8443929,-1.437183 z m -0.8443929,1.569353 v 2.853727 H 8.991999 v -2.853727 z m 0,3.068449 v 1.028378 H 8.991999 v -1.028378 z" sodipodi:nodetypes="accacccccccccc" /><path id="path6" style="fill:#f9f9f9;stroke-width:0.15909;stroke-linecap:square" d="m 13.67166,10.564325 c -0.555627,0 -0.844392,1.437183 -0.844392,1.437183 h 1.688785 c 0,0 -0.288766,-1.437183 -0.844393,-1.437183 z m -0.844392,1.569353 v 2.853727 h 1.688785 v -2.853727 z m 0,3.068449 v 1.028378 h 1.688785 v -1.028378 z" sodipodi:nodetypes="accacccccccccc" /><path id="path7" style="fill:#f9f9f9;stroke-width:0.15909;stroke-linecap:square" d="m 10.909633,10.564325 c -0.555627,0 -0.844393,1.437183 -0.844393,1.437183 h 1.688786 c 0,0 -0.288766,-1.437183 -0.844393,-1.437183 z m -0.844393,1.569353 v 2.853727 h 1.688786 v -2.853727 z m 0,3.068449 v 1.028378 h 1.688786 v -1.028378 z" sodipodi:nodetypes="accacccccccccc" /></g></g></g></svg>
