<?xml version="1.0" encoding="UTF-8" standalone="no"?>
<!-- Created with Inkscape (http://www.inkscape.org/) -->

<svg width="32" height="32.000011" viewBox="0 0 8.4666665 8.4666695" version="1.1" id="svg1" inkscape:version="1.3.2 (091e20ef0f, 2023-11-25, custom)" sodipodi:docname="ui-rocket.svg" xml:space="preserve" xmlns:inkscape="http://www.inkscape.org/namespaces/inkscape" xmlns:sodipodi="http://sodipodi.sourceforge.net/DTD/sodipodi-0.dtd" xmlns="http://www.w3.org/2000/svg" xmlns:svg="http://www.w3.org/2000/svg"><sodipodi:namedview id="namedview1" pagecolor="#c3c3c3" bordercolor="#000000" borderopacity="0.25" inkscape:showpageshadow="2" inkscape:pageopacity="0.0" inkscape:pagecheckerboard="true" inkscape:deskcolor="#767676" inkscape:document-units="px" inkscape:zoom="16.428527" inkscape:cx="7.8521951" inkscape:cy="21.030491" inkscape:current-layer="g1" /><defs id="defs1" /><g inkscape:label="Layer 1" inkscape:groupmode="layer" id="layer1" transform="translate(-44.276684,-115.70236)"><g id="g1" transform="translate(38.227297,106.41331)"><path id="path5" style="color:#000000;fill:#f9f9f9;stroke-width:1;stroke-linejoin:round;-inkscape-stroke:none" d="m 10.282499,9.2890503 a 0.22642581,0.22642581 0 0 0 -0.17754,0.086006 L 8.6058139,11.277813 a 0.22642581,0.22642581 0 0 0 -0.04842,0.139953 v 3.941267 a 0.22642581,0.22642581 0 0 0 -0.036813,0.04267 l -0.9225247,1.54425 a 0.22642581,0.22642581 0 0 0 0.1942333,0.342258 h 0.7651044 v 0.240995 a 0.22642581,0.22642581 0 0 0 0.2259606,0.226513 h 2.9982895 a 0.22642581,0.22642581 0 0 0 0.226513,-0.226513 v -0.240995 h 0.764994 a 0.22642581,0.22642581 0 0 0 0.194233,-0.342258 l -0.922525,-1.544248 a 0.22642581,0.22642581 0 0 0 -0.0367,-0.04245 v -3.941487 a 0.22642581,0.22642581 0 0 0 -0.04853,-0.139954 L 10.460482,9.3750568 a 0.22642581,0.22642581 0 0 0 -0.177983,-0.086006 z" /></g></g></svg>
