<?xml version="1.0" encoding="UTF-8" standalone="no"?>
<!-- Created with Inkscape (http://www.inkscape.org/) -->

<svg width="32" height="32.000011" viewBox="0 0 8.4666665 8.4666695" version="1.1" id="svg1" inkscape:version="1.3.2 (091e20ef0f, 2023-11-25, custom)" sodipodi:docname="ui-shell.svg" xml:space="preserve" xmlns:inkscape="http://www.inkscape.org/namespaces/inkscape" xmlns:sodipodi="http://sodipodi.sourceforge.net/DTD/sodipodi-0.dtd" xmlns="http://www.w3.org/2000/svg" xmlns:svg="http://www.w3.org/2000/svg"><sodipodi:namedview id="namedview1" pagecolor="#c3c3c3" bordercolor="#000000" borderopacity="0.25" inkscape:showpageshadow="2" inkscape:pageopacity="0.0" inkscape:pagecheckerboard="true" inkscape:deskcolor="#767676" inkscape:document-units="px" inkscape:zoom="16.428527" inkscape:cx="8.5826318" inkscape:cy="13.360906" inkscape:current-layer="g1" /><defs id="defs1" /><g inkscape:label="Layer 1" inkscape:groupmode="layer" id="layer1" transform="translate(-44.276684,-115.70236)"><g id="g1" transform="translate(38.227297,106.41331)"><path id="path10" style="fill:#f9f9f9;stroke-width:0.15909;stroke-linecap:square" d="M 6.6762221 10.583545 L 6.6762221 15.112467 L 8.3650079 15.112467 L 8.3650079 10.583545 L 6.6762221 10.583545 z M 9.4383274 10.583545 L 9.4383274 15.112467 L 11.127113 15.112467 L 11.127113 10.583545 L 9.4383274 10.583545 z M 12.200433 10.583545 L 12.200433 15.112467 L 13.889218 15.112467 L 13.889218 10.583545 L 12.200433 10.583545 z M 6.634881 15.301603 L 6.634881 16.380607 L 8.406349 16.380607 L 8.406349 15.301603 L 6.634881 15.301603 z M 9.3969862 15.301603 L 9.3969862 16.380607 L 11.168454 16.380607 L 11.168454 15.301603 L 9.3969862 15.301603 z M 12.159091 15.301603 L 12.159091 16.380607 L 13.93056 16.380607 L 13.93056 15.301603 L 12.159091 15.301603 z " /></g></g></svg>
