<?xml version="1.0" encoding="UTF-8" standalone="no"?>
<svg width="180" height="89.225891" viewBox="0 0 47.624999 23.607686" version="1.1" id="svg8" sodipodi:docname="ammo-box.svg" inkscape:version="1.3.2 (091e20ef0f, 2023-11-25, custom)" xml:space="preserve" xmlns:inkscape="http://www.inkscape.org/namespaces/inkscape" xmlns:sodipodi="http://sodipodi.sourceforge.net/DTD/sodipodi-0.dtd" xmlns="http://www.w3.org/2000/svg" xmlns:svg="http://www.w3.org/2000/svg" xmlns:rdf="http://www.w3.org/1999/02/22-rdf-syntax-ns#" xmlns:cc="http://creativecommons.org/ns#" xmlns:dc="http://purl.org/dc/elements/1.1/"><sodipodi:namedview id="namedview1" pagecolor="#ffffff" bordercolor="#000000" borderopacity="0.25" inkscape:showpageshadow="2" inkscape:pageopacity="0.0" inkscape:pagecheckerboard="0" inkscape:deskcolor="#d1d1d1" inkscape:zoom="3.5079126" inkscape:cx="91.792481" inkscape:cy="69.12943" inkscape:current-layer="svg8" /><defs id="defs2" /><metadata id="metadata5"><rdf:RDF><cc:Work rdf:about=""><dc:format>image/svg+xml</dc:format><dc:type rdf:resource="http://purl.org/dc/dcmitype/StillImage" /></cc:Work></rdf:RDF></metadata><rect style="fill:#17330f;fill-opacity:1;stroke:#1a1a1a;stroke-width:1.5875;stroke-linecap:square;stroke-opacity:1" id="rect1" width="46.037502" height="22.020185" x="0.79374999" y="0.79374999" /><path d="m 8.1284485,11.277191 h -1.987713 q -0.094653,0 -0.168272,-0.0631 -0.063102,-0.07362 -0.063102,-0.136721 0,-0.0631 0.010517,-0.09465 l 2.292706,-6.720363 q 0.094653,-0.347061 0.473265,-0.347061 h 2.9237265 q 0.378612,0 0.473265,0.347061 l 2.292706,6.720363 q 0.01052,0.03155 0.01052,0.09465 0,0.0631 -0.07362,0.136721 -0.0631,0.0631 -0.157755,0.0631 h -1.987713 q -0.336544,0 -0.473265,-0.357578 l -0.262925,-0.73619 H 8.8646385 l -0.262925,0.73619 q -0.136721,0.357578 -0.473265,0.357578 z M 10.89442,8.1326081 10.147713,5.9450721 9.4010056,8.1326081 Z M 20.885574,3.915291 h 1.924611 q 0.115687,0 0.199823,0.084136 0.08414,0.084136 0.08414,0.199823 v 6.793982 q 0,0.115687 -0.08414,0.199823 -0.08414,0.08414 -0.199823,0.08414 h -1.903577 q -0.115687,0 -0.199823,-0.08414 -0.08414,-0.08414 -0.08414,-0.199823 V 7.7329621 l -0.767741,1.514448 q -0.0631,0.126204 -0.189306,0.199823 -0.126204,0.063102 -0.252408,0.063102 h -0.715156 q -0.178789,0 -0.294476,-0.094653 -0.115687,-0.094653 -0.147238,-0.168272 l -0.767741,-1.514448 v 3.2602699 q 0,0.115687 -0.08414,0.199823 -0.08414,0.08414 -0.199823,0.08414 h -1.903577 q -0.115687,0 -0.199823,-0.08414 -0.08414,-0.08414 -0.08414,-0.199823 V 4.19925 q 0,-0.115687 0.08414,-0.199823 0.08414,-0.084136 0.199823,-0.084136 h 1.924611 q 0.294476,0 0.452231,0.283959 L 19.055616,6.7233301 20.433343,4.19925 q 0.157755,-0.283959 0.452231,-0.283959 z m 8.939454,0 h 1.924611 q 0.115687,0 0.199823,0.084136 0.08414,0.084136 0.08414,0.199823 v 6.793982 q 0,0.115687 -0.08414,0.199823 -0.08414,0.08414 -0.199823,0.08414 h -1.903577 q -0.115687,0 -0.199823,-0.08414 -0.08414,-0.08414 -0.08414,-0.199823 V 7.7329621 l -0.767741,1.514448 q -0.0631,0.126204 -0.189306,0.199823 -0.126204,0.063102 -0.252408,0.063102 h -0.715156 q -0.178789,0 -0.294476,-0.094653 -0.115687,-0.094653 -0.147238,-0.168272 l -0.767741,-1.514448 v 3.2602699 q 0,0.115687 -0.08414,0.199823 -0.08414,0.08414 -0.199823,0.08414 h -1.903577 q -0.115687,0 -0.199823,-0.08414 -0.08414,-0.08414 -0.08414,-0.199823 V 4.19925 q 0,-0.115687 0.08414,-0.199823 0.08414,-0.084136 0.199823,-0.084136 h 1.924611 q 0.294476,0 0.452231,0.283959 L 27.99507,6.7233301 29.372797,4.19925 q 0.157755,-0.283959 0.452231,-0.283959 z m 11.021821,3.0394131 v 1.283074 q 0,1.083251 -0.52585,1.8089239 -0.52585,0.725673 -1.377727,1.030666 -0.851877,0.304993 -2.008747,0.304993 -1.15687,0 -2.008747,-0.304993 -0.851877,-0.304993 -1.377727,-1.030666 -0.52585,-0.7256729 -0.52585,-1.8299579 v -1.241006 q 0,-1.588067 1.083251,-2.3768421 1.093768,-0.788775 2.829073,-0.788775 1.735305,0 2.818556,0.788775 1.093768,0.7887751 1.093768,2.3558081 z m -4.985058,-0.199823 v 1.68272 q 0,0.431197 0.283959,0.662571 0.294476,0.231374 0.788775,0.231374 0.494299,0 0.778258,-0.231374 0.294476,-0.241891 0.294476,-0.673088 v -1.661686 q 0,-0.431197 -0.294476,-0.662571 -0.283959,-0.241891 -0.778258,-0.241891 -0.494299,0 -0.788775,0.231374 -0.283959,0.231374 -0.283959,0.662571 z" id="text1" style="font-size:10.517px;font-family:'Rubik Mono One';-inkscape-font-specification:'Rubik Mono One';text-align:center;text-anchor:middle;fill:#503c26;stroke-width:1.5875;stroke-linecap:square" transform="scale(1.0023072,0.99769809)" aria-label="Ammo" /><g id="g10" transform="matrix(1.1298701,0,0,1.1246742,-13.524574,0.86076187)" style="fill:#503c26;fill-opacity:1;stroke-width:0.8871"><g id="g4" style="fill:#503c26;fill-opacity:1;stroke-width:0.8871"><path style="fill:#503c26;fill-opacity:1;stroke:none;stroke-width:1.40826;stroke-linecap:square;stroke-opacity:1" d="m 26.865555,16.303701 v -4.590472 l 1.371575,-1.037692 1.371576,1.037692 v 4.590472 z" id="path1" sodipodi:nodetypes="cccccc" /><path style="fill:#503c26;fill-opacity:1;stroke:none;stroke-width:1.40826;stroke-linecap:square;stroke-opacity:1" d="m 26.865555,17.906608 v -1.310636 h 2.743151 v 1.310636 z" id="path2" sodipodi:nodetypes="ccccc" /></g><g id="g9" transform="translate(9.616652)" style="fill:#503c26;fill-opacity:1;stroke-width:0.8871"><path style="fill:#503c26;fill-opacity:1;stroke:none;stroke-width:1.40826;stroke-linecap:square;stroke-opacity:1" d="m 26.865555,16.303701 v -4.590472 l 1.371575,-1.037692 1.371576,1.037692 v 4.590472 z" id="path8" sodipodi:nodetypes="cccccc" /><path style="fill:#503c26;fill-opacity:1;stroke:none;stroke-width:1.40826;stroke-linecap:square;stroke-opacity:1" d="m 26.865555,17.906608 v -1.310636 h 2.743151 v 1.310636 z" id="path9" sodipodi:nodetypes="ccccc" /></g><g id="g7" transform="translate(4.808326)" style="fill:#503c26;fill-opacity:1;stroke-width:0.8871"><path style="fill:#503c26;fill-opacity:1;stroke:none;stroke-width:1.40826;stroke-linecap:square;stroke-opacity:1" d="m 26.865555,16.303701 v -4.590472 l 1.371575,-1.037692 1.371576,1.037692 v 4.590472 z" id="path6" sodipodi:nodetypes="cccccc" /><path style="fill:#503c26;fill-opacity:1;stroke:none;stroke-width:1.40826;stroke-linecap:square;stroke-opacity:1" d="m 26.865555,17.906608 v -1.310636 h 2.743151 v 1.310636 z" id="path7" sodipodi:nodetypes="ccccc" /></g></g></svg>
