<?xml version="1.0" encoding="UTF-8" standalone="no"?>
<svg width="270.57703" height="132.0818" viewBox="0 0 71.590172 34.946651" version="1.1" id="svg8" sodipodi:docname="rocket-box.svg" inkscape:version="1.3.2 (091e20ef0f, 2023-11-25, custom)" xml:space="preserve" xmlns:inkscape="http://www.inkscape.org/namespaces/inkscape" xmlns:sodipodi="http://sodipodi.sourceforge.net/DTD/sodipodi-0.dtd" xmlns="http://www.w3.org/2000/svg" xmlns:svg="http://www.w3.org/2000/svg" xmlns:rdf="http://www.w3.org/1999/02/22-rdf-syntax-ns#" xmlns:cc="http://creativecommons.org/ns#" xmlns:dc="http://purl.org/dc/elements/1.1/"><sodipodi:namedview id="namedview1" pagecolor="#ffffff" bordercolor="#000000" borderopacity="0.25" inkscape:showpageshadow="2" inkscape:pageopacity="0.0" inkscape:pagecheckerboard="0" inkscape:deskcolor="#d1d1d1" inkscape:zoom="2.4804688" inkscape:cx="103.2063" inkscape:cy="56.642519" inkscape:current-layer="svg8" /><defs id="defs2"><rect x="78.486099" y="5.6440945" width="138.81154" height="119.45923" id="rect2" /></defs><metadata id="metadata5"><rdf:RDF><cc:Work rdf:about=""><dc:format>image/svg+xml</dc:format><dc:type rdf:resource="http://purl.org/dc/dcmitype/StillImage" /></cc:Work></rdf:RDF></metadata><rect style="fill:#886a41;stroke:#1a1a1a;stroke-width:3.14505;stroke-linecap:square;stroke-linejoin:round" id="rect1" width="68.445129" height="31.801596" x="1.572525" y="1.572525" /><rect style="fill:#644f2f;stroke:#1a1a1a;stroke-width:3.14505;stroke-linecap:square;stroke-linejoin:round;fill-opacity:1" id="rect6" width="55.392952" height="21.671055" x="8.0986156" y="6.637795" /><path d="m 21.492745,14.029835 q 0.01321,0.02642 0.01321,0.07267 0,0.04624 -0.04624,0.09249 -0.03964,0.03964 -0.09909,0.03964 h -1.499599 q -0.198185,0 -0.277458,-0.165154 l -0.581343,-1.30802 h -0.554917 v 1.294807 q 0,0.07267 -0.05285,0.125518 -0.05285,0.05285 -0.125517,0.05285 h -1.426931 q -0.07267,0 -0.125517,-0.05285 -0.05285,-0.05285 -0.05285,-0.125518 V 9.78868 q 0,-0.072668 0.05285,-0.125517 0.05285,-0.052849 0.125517,-0.052849 h 2.569796 q 0.905044,0 1.433537,0.4294003 0.528493,0.429401 0.528493,1.16929 0,0.898438 -0.693647,1.301414 z m -3.04544,-3.190776 v 0.700253 h 0.82577 q 0.145336,0 0.224609,-0.09249 0.07927,-0.09909 0.07927,-0.244428 0,-0.145335 -0.07927,-0.251034 -0.07267,-0.112305 -0.224609,-0.112305 z m 8.495525,0.680435 v 0.805952 q 0,0.680434 -0.330309,1.136259 -0.330308,0.455825 -0.865406,0.647404 -0.535099,0.191578 -1.261777,0.191578 -0.726678,0 -1.261777,-0.191578 -0.535099,-0.191579 -0.865407,-0.647404 -0.330308,-0.455825 -0.330308,-1.149472 v -0.779527 q 0,-0.99753 0.680435,-1.492992 0.68704,-0.4954619 1.777057,-0.4954619 1.090016,0 1.770451,0.4954619 0.687041,0.495462 0.687041,1.47978 z m -3.13132,-0.125517 v 1.056986 q 0,0.270852 0.178366,0.416188 0.184972,0.145335 0.495462,0.145335 0.310489,0 0.488856,-0.145335 0.184972,-0.151942 0.184972,-0.422795 v -1.043773 q 0,-0.270852 -0.184972,-0.416188 -0.178367,-0.151942 -0.488856,-0.151942 -0.31049,0 -0.495462,0.145336 -0.178366,0.145335 -0.178366,0.416188 z m 5.6813,0 v 1.056986 q 0,0.270852 0.178366,0.416188 0.184973,0.145335 0.475644,0.145335 0.297277,0 0.4294,-0.09249 0.132123,-0.09249 0.218003,-0.270853 0.09249,-0.178366 0.237822,-0.178366 h 1.426931 q 0.05945,0 0.09909,0.04624 0.04624,0.03964 0.04624,0.09909 0,0.614372 -0.581342,1.123047 -0.290671,0.251034 -0.772921,0.409582 -0.482249,0.151941 -1.136259,0.151941 -0.65401,0 -1.195715,-0.198184 -0.535099,-0.204791 -0.872013,-0.660616 -0.336914,-0.462432 -0.336914,-1.129654 v -0.779527 q 0,-0.667222 0.336914,-1.129653 0.634191,-0.8588009 2.120577,-0.8588009 0.601161,0 1.08341,0.1585478 0.48225,0.1519417 0.772921,0.4029761 0.581342,0.508674 0.581342,1.123047 0,0.05945 -0.04624,0.105699 -0.03964,0.03964 -0.09909,0.03964 h -1.426931 q -0.145335,0 -0.237822,-0.178366 -0.08588,-0.178366 -0.218003,-0.270852 -0.132123,-0.09249 -0.4294,-0.09249 -0.290671,0 -0.475644,0.145336 -0.178366,0.145335 -0.178366,0.416188 z m 8.95135,2.609433 q 0.02643,0.03964 0.02643,0.09249 0,0.05285 -0.04624,0.09909 -0.03964,0.03964 -0.09909,0.03964 H 36.62086 q -0.151942,0 -0.237822,-0.105699 l -1.149472,-1.420324 v 1.347656 q 0,0.07267 -0.05285,0.125518 -0.05285,0.05285 -0.125517,0.05285 h -1.360869 q -0.07267,0 -0.125517,-0.05285 -0.05285,-0.05285 -0.05285,-0.125518 V 9.78868 q 0,-0.072668 0.05285,-0.125517 0.05285,-0.052849 0.125517,-0.052849 H 35.0552 q 0.07267,0 0.125517,0.052849 0.05285,0.052849 0.05285,0.125517 v 1.241958 l 1.043773,-1.3080196 q 0.09909,-0.1123047 0.244428,-0.1123047 h 1.592085 q 0.05945,0 0.09909,0.046243 0.04624,0.039637 0.04624,0.099092 0,0.052849 -0.03303,0.092486 l -1.56566,1.9091805 z m 2.391432,-1.056985 h 2.635858 q 0.07267,0 0.125517,0.05285 0.05285,0.05285 0.05285,0.125517 v 0.931468 q 0,0.07267 -0.05285,0.125518 -0.05285,0.05285 -0.125517,0.05285 h -4.175093 q -0.07267,0 -0.125517,-0.05285 -0.05285,-0.05285 -0.05285,-0.125518 V 9.78868 q 0,-0.072668 0.05285,-0.125517 0.05285,-0.052849 0.125517,-0.052849 h 4.109031 q 0.07267,0 0.125517,0.052849 0.05285,0.052849 0.05285,0.125517 v 0.931469 q 0,0.07267 -0.05285,0.125517 -0.05285,0.05285 -0.125517,0.05285 h -2.569796 v 0.416188 h 2.206457 q 0.07267,0 0.125517,0.05285 0.05285,0.05285 0.05285,0.125517 v 0.858801 q 0,0.07267 -0.05285,0.125517 -0.05285,0.05285 -0.125517,0.05285 h -2.206457 z m 3.831575,-3.3361113 h 4.55825 q 0.07267,0 0.125517,0.052849 0.05285,0.052849 0.05285,0.125517 v 1.063592 q 0,0.07267 -0.05285,0.125517 -0.05285,0.05285 -0.125517,0.05285 h -1.420324 v 3.025621 q 0,0.07267 -0.05285,0.125518 -0.05285,0.05285 -0.125517,0.05285 h -1.360869 q -0.07267,0 -0.125517,-0.05285 -0.05285,-0.05285 -0.05285,-0.125518 v -3.025621 h -1.420324 q -0.07267,0 -0.125517,-0.05285 -0.05285,-0.05285 -0.05285,-0.125517 V 9.78868 q 0,-0.072668 0.05285,-0.125517 0.05285,-0.052849 0.125517,-0.052849 z m 8.257704,1.6779643 q 1.08341,0.125517 1.539235,0.469038 0.462432,0.336914 0.462432,1.017348 0,0.680435 -0.667223,1.103229 -0.667222,0.422794 -1.770451,0.422794 -1.103228,0 -1.717601,-0.402975 -0.607767,-0.409582 -0.607767,-1.004137 0,-0.145335 0.151942,-0.145335 h 1.354263 q 0.138729,0 0.224609,0.08588 0.184973,0.178366 0.640798,0.178366 0.627585,0 0.627585,-0.191578 0,-0.118911 -0.198185,-0.184973 -0.198185,-0.07267 -0.786133,-0.138729 -1.869543,-0.22461 -1.869543,-1.433537 0,-0.680435 0.60116,-1.0966226 0.601161,-0.4227943 1.605297,-0.4227943 1.010743,0 1.631722,0.4426127 0.620979,0.4360062 0.620979,0.9248622 0,0.06606 -0.04624,0.105699 -0.03964,0.03964 -0.112305,0.03964 h -1.420325 q -0.11891,0 -0.204791,-0.07927 -0.158547,-0.145336 -0.475643,-0.145336 -0.442613,0 -0.442613,0.184973 0,0.09909 0.17176,0.158548 0.171761,0.05285 0.687041,0.112304 z" id="text1" style="font-size:6.60616px;font-family:'Rubik Mono One';-inkscape-font-specification:'Rubik Mono One';text-align:center;text-anchor:middle;fill:#1a1a1a;stroke-width:3.60336;stroke-linecap:square;stroke-linejoin:round" aria-label="ROCKETS" /><text xml:space="preserve" transform="matrix(0.26458336,0,0,0.26458336,-25.315986,-6.3639372)" id="text2" style="font-size:14.6667px;font-family:'Rubik Mono One';-inkscape-font-specification:'Rubik Mono One';text-align:center;white-space:pre;shape-inside:url(#rect2);display:inline;fill:none;stroke:none;stroke-width:8;stroke-linecap:square;stroke-linejoin:round" /><g id="g6" transform="rotate(-90,31.236114,35.018661)"><g id="g7" transform="matrix(0.45337812,0,0,0.45337812,39.846375,30.605821)" style="fill:#1a1a1a;fill-opacity:1"><path id="rect40" style="fill:#1a1a1a;stroke:#1a1a1a;stroke-width:2.11667;stroke-linejoin:round;fill-opacity:1" d="M 5.6922222,38.519302 V 9.9517125 L 12.7,1.0582698 19.70778,9.9517125 V 38.519302 Z" sodipodi:nodetypes="cccccc" /><path style="fill:#1a1a1a;fill-opacity:1;stroke:#1a1a1a;stroke-width:2.11667;stroke-linecap:butt;stroke-linejoin:round;stroke-dasharray:none;stroke-opacity:1;paint-order:normal" d="M 5.3705971,36.33485 H 1.0582543 l 4.3123428,-7.217341 z" id="path41" /><path style="fill:#1a1a1a;fill-opacity:1;stroke:#1a1a1a;stroke-width:2.11667;stroke-linecap:butt;stroke-linejoin:round;stroke-dasharray:none;stroke-opacity:1;paint-order:normal" d="m 20.029406,36.33485 h 4.312341 l -4.312341,-7.217341 z" id="path42" /></g></g></svg>
