<?xml version="1.0" encoding="UTF-8" standalone="no"?>
<svg width="219.65355" height="96.261963" viewBox="0 0 58.116668 25.469311" version="1.1" id="svg8" sodipodi:docname="shell-box.svg" inkscape:version="1.3.2 (091e20ef0f, 2023-11-25, custom)" xml:space="preserve" xmlns:inkscape="http://www.inkscape.org/namespaces/inkscape" xmlns:sodipodi="http://sodipodi.sourceforge.net/DTD/sodipodi-0.dtd" xmlns="http://www.w3.org/2000/svg" xmlns:svg="http://www.w3.org/2000/svg" xmlns:rdf="http://www.w3.org/1999/02/22-rdf-syntax-ns#" xmlns:cc="http://creativecommons.org/ns#" xmlns:dc="http://purl.org/dc/elements/1.1/"><sodipodi:namedview id="namedview1" pagecolor="#ffffff" bordercolor="#000000" borderopacity="0.25" inkscape:showpageshadow="2" inkscape:pageopacity="0.0" inkscape:pagecheckerboard="0" inkscape:deskcolor="#d1d1d1" inkscape:zoom="4.9609376" inkscape:cx="61.278739" inkscape:cy="58.759054" inkscape:current-layer="svg8" /><defs id="defs2" /><metadata id="metadata5"><rdf:RDF><cc:Work rdf:about=""><dc:format>image/svg+xml</dc:format><dc:type rdf:resource="http://purl.org/dc/dcmitype/StillImage" /></cc:Work></rdf:RDF></metadata><path style="fill:#886a41;fill-opacity:1;stroke:#1a1a1a;stroke-width:2.11667;stroke-linecap:square;stroke-linejoin:round;stroke-dasharray:none;stroke-opacity:1" d="M 57.058335,10.978331 51.614355,1.5490759 H 39.010831 l 2.526562,9.4292551 z" id="path11" /><rect style="fill:#5c482d;fill-opacity:1;stroke:#1a1a1a;stroke-width:2.11667;stroke-linecap:square;stroke-linejoin:round;stroke-dasharray:none;stroke-opacity:1" id="rect11" width="15.573333" height="13.432645" x="41.485001" y="10.978332" /><rect style="fill:#5e5e5e;fill-opacity:1;stroke:#1a1a1a;stroke-width:2.11667;stroke-linecap:round;stroke-linejoin:round;stroke-dasharray:none;stroke-opacity:1" id="rect9" width="40.853333" height="15.466666" x="1.0583349" y="8.9443083" /><path id="rect10" style="fill:#888888;stroke:#1a1a1a;stroke-width:2.11667;stroke-linecap:square;stroke-linejoin:round" d="M 4.1516676,1.0583349 H 38.818335 l 3.093333,7.885976 H 1.0583346 Z" sodipodi:nodetypes="ccccc" /><path d="m 7.9074315,16.047196 q 1.077011,0.124776 1.5301437,0.466267 0.4596998,0.334925 0.4596998,1.01134 0,0.676415 -0.6632812,1.096712 -0.6632811,0.420297 -1.7599935,0.420297 -1.0967124,0 -1.7074564,-0.400595 -0.6041769,-0.407163 -0.6041769,-0.998205 0,-0.144478 0.1510442,-0.144478 h 1.3462637 q 0.13791,0 0.2232828,0.08537 0.1838799,0.177313 0.6370126,0.177313 0.6238783,0 0.6238783,-0.190447 0,-0.118209 -0.1970142,-0.18388 -0.1970142,-0.07224 -0.7814897,-0.13791 -1.8585006,-0.223283 -1.8585006,-1.425069 0,-0.676416 0.5976097,-1.090146 0.5976098,-0.420296 1.5958151,-0.420296 1.0047724,0 1.6220836,0.439998 0.6173111,0.433431 0.6173111,0.9194 0,0.06567 -0.04597,0.105074 -0.039403,0.0394 -0.1116413,0.0394 H 8.1701171 q -0.1182085,0 -0.2035813,-0.07881 -0.1576114,-0.144477 -0.4728341,-0.144477 -0.4399984,0 -0.4399984,0.18388 0,0.09851 0.1707457,0.157611 0.1707456,0.05254 0.6829825,0.111641 z m 6.0549055,-1.668053 h 1.352831 q 0.07224,0 0.124776,0.05254 0.05254,0.05254 0.05254,0.124776 v 4.242372 q 0,0.07224 -0.05254,0.124776 -0.05254,0.05254 -0.124776,0.05254 h -1.352831 q -0.07224,0 -0.124775,-0.05254 -0.05254,-0.05254 -0.05254,-0.124776 v -1.398801 h -1.313428 v 1.398801 q 0,0.07224 -0.05254,0.124776 -0.05254,0.05254 -0.124775,0.05254 h -1.352831 q -0.07224,0 -0.124776,-0.04597 -0.05254,-0.05254 -0.05254,-0.131343 v -4.242372 q 0,-0.07224 0.05254,-0.124776 0.05254,-0.05254 0.124776,-0.05254 h 1.352831 q 0.07224,0 0.124775,0.05254 0.05254,0.05254 0.05254,0.124776 v 1.346263 h 1.313428 v -1.346263 q 0,-0.07224 0.05254,-0.124776 0.05254,-0.05254 0.124775,-0.05254 z m 4.25551,3.316406 h 2.620289 q 0.07224,0 0.124775,0.05254 0.05254,0.05254 0.05254,0.124775 v 0.925967 q 0,0.07224 -0.05254,0.124776 -0.05254,0.05254 -0.124775,0.05254 h -4.150433 q -0.07224,0 -0.124775,-0.05254 -0.05254,-0.05254 -0.05254,-0.124776 v -4.242372 q 0,-0.07224 0.05254,-0.124776 0.05254,-0.05254 0.124775,-0.05254 h 4.084761 q 0.07224,0 0.124776,0.05254 0.05254,0.05254 0.05254,0.124776 v 0.925966 q 0,0.07224 -0.05254,0.124776 -0.05254,0.05254 -0.124776,0.05254 h -2.554617 v 0.41373 h 2.193425 q 0.07224,0 0.124775,0.05254 0.05254,0.05254 0.05254,0.124776 v 0.853728 q 0,0.07224 -0.05254,0.124776 -0.05254,0.05254 -0.124775,0.05254 h -2.193425 z m 5.976101,-0.06567 h 2.239394 q 0.07224,0 0.124776,0.05254 0.05254,0.05254 0.05254,0.124776 v 0.991638 q 0,0.07224 -0.05254,0.124776 -0.05254,0.05254 -0.124776,0.05254 h -3.835209 q -0.07224,0 -0.124776,-0.05254 -0.05254,-0.05254 -0.05254,-0.124776 v -4.242372 q 0,-0.07224 0.05254,-0.124776 0.05254,-0.05254 0.124776,-0.05254 h 1.418502 q 0.07224,0 0.124775,0.05254 0.05254,0.05254 0.05254,0.124776 z m 5.582071,0 h 2.239395 q 0.07224,0 0.124775,0.05254 0.05254,0.05254 0.05254,0.124776 v 0.991638 q 0,0.07224 -0.05254,0.124776 -0.05254,0.05254 -0.124775,0.05254 h -3.83521 q -0.07224,0 -0.124776,-0.05254 -0.05254,-0.05254 -0.05254,-0.124776 v -4.242372 q 0,-0.07224 0.05254,-0.124776 0.05254,-0.05254 0.124776,-0.05254 h 1.418502 q 0.07224,0 0.124776,0.05254 0.05254,0.05254 0.05254,0.124776 z m 6.041771,-1.582681 q 1.077011,0.124776 1.530144,0.466267 0.459699,0.334925 0.459699,1.01134 0,0.676415 -0.663281,1.096712 -0.663281,0.420297 -1.759993,0.420297 -1.096713,0 -1.707457,-0.400595 -0.604177,-0.407163 -0.604177,-0.998205 0,-0.144478 0.151045,-0.144478 h 1.346263 q 0.13791,0 0.223283,0.08537 0.18388,0.177313 0.637013,0.177313 0.623878,0 0.623878,-0.190447 0,-0.118209 -0.197014,-0.18388 -0.197014,-0.07224 -0.78149,-0.13791 -1.858501,-0.223283 -1.858501,-1.425069 0,-0.676416 0.59761,-1.090146 0.59761,-0.420296 1.595815,-0.420296 1.004773,0 1.622084,0.439998 0.617311,0.433431 0.617311,0.9194 0,0.06567 -0.04597,0.105074 -0.0394,0.0394 -0.111641,0.0394 h -1.411935 q -0.118209,0 -0.203582,-0.07881 -0.157611,-0.144477 -0.472834,-0.144477 -0.439998,0 -0.439998,0.18388 0,0.09851 0.170745,0.157611 0.170746,0.05254 0.682983,0.111641 z" id="text11" style="font-size:6.56714px;font-family:'Rubik Mono One';-inkscape-font-specification:'Rubik Mono One';text-align:center;text-anchor:middle;fill:#1a1a1a;stroke-width:2.11667;stroke-linecap:square;stroke-linejoin:round" aria-label="SHELLS" /><g id="g11" transform="translate(27.353999,-30.375123)" /></svg>
