<?xml version="1.0" encoding="UTF-8" standalone="no"?>
<svg width="478.12369" height="132.43353" viewBox="0 0 126.50356 35.039709" version="1.1" id="svg8" sodipodi:docname="ak.svg" inkscape:version="1.3.2 (091e20ef0f, 2023-11-25, custom)" xml:space="preserve" xmlns:inkscape="http://www.inkscape.org/namespaces/inkscape" xmlns:sodipodi="http://sodipodi.sourceforge.net/DTD/sodipodi-0.dtd" xmlns="http://www.w3.org/2000/svg" xmlns:svg="http://www.w3.org/2000/svg" xmlns:rdf="http://www.w3.org/1999/02/22-rdf-syntax-ns#" xmlns:cc="http://creativecommons.org/ns#" xmlns:dc="http://purl.org/dc/elements/1.1/"><sodipodi:namedview id="namedview1" pagecolor="#ffffff" bordercolor="#000000" borderopacity="0.25" inkscape:showpageshadow="2" inkscape:pageopacity="0.0" inkscape:pagecheckerboard="0" inkscape:deskcolor="#d1d1d1" inkscape:zoom="1.2402344" inkscape:cx="215.28189" inkscape:cy="18.141732" inkscape:current-layer="svg8" /><defs id="defs2" /><metadata id="metadata5"><rdf:RDF><cc:Work rdf:about=""><dc:format>image/svg+xml</dc:format><dc:type rdf:resource="http://purl.org/dc/dcmitype/StillImage" /><dc:title /></cc:Work></rdf:RDF></metadata><path id="path858" d="m 64.347416,11.2807 c 1.156116,7.533255 4.791076,12.399863 10.126092,15.649999 l -4.843411,7.050716 C 61.030717,27.538716 57.476543,21.024315 55.729119,11.282132 Z" style="fill:#2b2b2b;fill-opacity:1;stroke:#1a1a1a;stroke-width:2.11667;stroke-linecap:butt;stroke-linejoin:round;stroke-miterlimit:4;stroke-dasharray:none;stroke-opacity:1" /><path id="path860" d="m 33.902215,24.092854 c 1.046896,-1.600865 3.234427,-6.936351 3.236885,-7.623986 -0.169501,-0.993627 -1.213313,-2.410602 -1.213313,-2.410602 l 8.748238,-0.0015 c -0.495173,1.314794 -0.393957,1.594577 -1.799077,2.43553 -2.54861,3.800882 -1.193072,10.09114 -4.806217,10.922863 -2.128473,0.293096 -5.304259,-1.582572 -4.166516,-3.322349 z" style="fill:#784421;fill-opacity:1;stroke:#1a1a1a;stroke-width:2.11667;stroke-linecap:butt;stroke-linejoin:round;stroke-miterlimit:4;stroke-dasharray:none;stroke-opacity:1" /><path id="path862" d="m 45.036574,15.291976 c 0.105547,0.819732 0.166269,1.382942 0.710624,1.370908 l 6.25063,-0.138143 c 0.512259,-0.01764 0.707953,-0.330397 0.710991,-0.822743 l 6.66e-4,-3.97598 -7.672315,0.0013 z" style="fill:none;stroke:#1a1a1a;stroke-width:0.79375;stroke-linecap:butt;stroke-linejoin:round;stroke-miterlimit:4;stroke-dasharray:none;stroke-opacity:1" /><path id="path864" d="m 46.688516,11.882698 2.070265,0.0014 c -0.473837,0.319555 -0.950331,0.640317 -1.30982,0.907529 0,0 -0.189444,0.647682 -0.08746,0.948718 0.20677,0.610318 0.639468,1.063354 1.311397,1.42405 -0.926088,0.01699 -1.651664,-0.796858 -1.840034,-1.51525 -0.113502,-0.597943 0.09851,-0.878062 0.09851,-0.878062 -0.462574,-0.416484 -0.317165,-0.64122 -0.242865,-0.888376 z" style="fill:#1a1a1a;fill-opacity:1;stroke:#1a1a1a;stroke-width:0.264583px;stroke-linecap:round;stroke-linejoin:round;stroke-opacity:1" /><path id="path866" d="m 33.709104,6.2559645 c 0,0 -8.371619,1.919844 -8.726668,1.956186 -1.348576,0.138044 -2.869398,-0.03039 -4.363022,-0.8789 L 1.0583191,9.5355775 3.1641172,22.974001 34.59042,12.95077 Z" style="fill:#784421;fill-opacity:1;stroke:#1a1a1a;stroke-width:2.11667;stroke-linecap:butt;stroke-linejoin:round;stroke-miterlimit:4;stroke-dasharray:none;stroke-opacity:1" /><path id="path868" d="M 35.925788,14.058266 34.59042,12.95077 33.709104,6.2559645 38.489739,1.7104228 78.700564,1.4646695 l -5.44e-4,3.248178 -5.130489,8.54e-4 -0.0011,6.5654625 -8.458371,0.0014 -19.881071,0.0033 -0.554964,2.772929 z" style="fill:#353535;fill-opacity:1;stroke:#1a1a1a;stroke-width:2.11667;stroke-linecap:butt;stroke-linejoin:round;stroke-miterlimit:4;stroke-dasharray:none;stroke-opacity:1" /><path id="path870" d="m 73.569531,4.7137015 -0.0011,6.5654625 c 1.91132,1.797868 4.326369,0.21181 6.378615,-0.977242 l 13.796856,-0.0023 c 0.685986,-0.236273 0.84142,-0.6255275 0.901533,-1.3477935 l 8.63e-4,-6.5568273 c -0.01,-0.4307076 -0.150068,-0.8734783 -0.710525,-0.9329189 l -15.235477,0.00249 -5.43e-4,3.2481782 z" style="fill:#784421;fill-opacity:1;stroke:#1a1a1a;stroke-width:2.11667;stroke-linecap:butt;stroke-linejoin:round;stroke-miterlimit:4;stroke-dasharray:none;stroke-opacity:1" /><path id="path872" d="m 95.009775,6.8810545 31.493565,-0.0052" style="fill:none;stroke:#1a1a1a;stroke-width:2.64583;stroke-linecap:butt;stroke-linejoin:miter;stroke-miterlimit:4;stroke-dasharray:none;stroke-opacity:1" /><path id="path874" d="m 122.07656,0.13272987 2.50024,-4.167e-4 0.0823,4.81468533 0.58406,1.002085 -5.1776,0.365817 z" style="fill:#1a1a1a;fill-opacity:1;stroke:#1a1a1a;stroke-width:0.264583px;stroke-linecap:butt;stroke-linejoin:miter;stroke-opacity:1" /><path style="fill:none;stroke:#1a1a1a;stroke-width:2.64583;stroke-linecap:butt;stroke-linejoin:round;stroke-miterlimit:4;stroke-dasharray:none;stroke-opacity:1" d="m 95.010363,3.3136617 10.920147,-0.00181 2.81323,3.6445478" id="path876" /><path id="path880" d="m 94.64536,9.4405095 28.92489,-0.0048 3.1e-4,-1.87524" style="fill:none;stroke:#1a1a1a;stroke-width:2.11667;stroke-linecap:butt;stroke-linejoin:round;stroke-miterlimit:4;stroke-dasharray:none;stroke-opacity:1" /><path id="path882" d="m 78.70002,4.7128475 15.980791,-0.0027" style="fill:none;stroke:#1a1a1a;stroke-width:2.11667;stroke-linecap:butt;stroke-linejoin:miter;stroke-miterlimit:4;stroke-dasharray:none;stroke-opacity:1" /><path id="path884" d="m 60.072163,8.9211535 11.396867,-0.0019" style="fill:none;stroke:#1a1a1a;stroke-width:2.11667;stroke-linecap:round;stroke-linejoin:miter;stroke-miterlimit:4;stroke-dasharray:none;stroke-opacity:1" /><path id="path888" d="m 73.860947,0.97151397 0.637467,-0.8797377 3.48072,0.048288 c 0,0 1.05389,0.8305849 0.955837,0.8306013 z" style="fill:#000000;stroke:none;stroke-width:0.264583px;stroke-linecap:butt;stroke-linejoin:miter;stroke-opacity:1" /><path id="path892" d="m 73.860947,0.97151397 0.637467,-0.8797377 3.48072,0.048288 c 0,0 1.05389,0.8305849 0.955837,0.8306013 z" style="fill:#1a1a1a;fill-opacity:1;stroke:none;stroke-width:0.264583px;stroke-linecap:butt;stroke-linejoin:miter;stroke-opacity:1" /><rect transform="matrix(0.99999999,-1.6638816e-4,-1.6745281e-4,0.99999999,0,0)" y="0.17747624" x="68.591003" height="0.8063277" width="5.1475563" id="rect894" style="opacity:0.999;fill:#1a1a1a;fill-opacity:1;stroke:none;stroke-width:2.11667;stroke-linecap:round;stroke-linejoin:round;stroke-miterlimit:4;stroke-dasharray:none;paint-order:stroke fill markers" /><path id="path896" d="m 68.68324,1.6050696 -5.27e-4,3.1495379 -12.0646,0.002 5.28e-4,-3.1495394 z" style="fill:#4c4c4c;fill-opacity:1;stroke:#1a1a1a;stroke-width:2.11667;stroke-linecap:butt;stroke-linejoin:round;stroke-miterlimit:4;stroke-dasharray:none;stroke-opacity:1" /><ellipse transform="matrix(0.99999999,-1.6638816e-4,-1.6745281e-4,0.99999999,0,0)" cy="8.1952724" cx="43.748669" id="path966" style="opacity:0.999;fill:#1a1a1a;fill-opacity:1;stroke:none;stroke-width:1.05832;stroke-linecap:round;stroke-linejoin:round;stroke-miterlimit:4;stroke-dasharray:none;stroke-opacity:1;paint-order:normal" rx="1.8408903" ry="1.8350288" /></svg>
