<?xml version="1.0" encoding="UTF-8" standalone="no"?>
<svg width="480.12363" height="134.90746" viewBox="0 0 127.03271 35.694268" version="1.1" id="svg8" sodipodi:docname="ak.svg" inkscape:version="1.3.2 (091e20ef0f, 2023-11-25, custom)" xml:space="preserve" xmlns:inkscape="http://www.inkscape.org/namespaces/inkscape" xmlns:sodipodi="http://sodipodi.sourceforge.net/DTD/sodipodi-0.dtd" xmlns="http://www.w3.org/2000/svg" xmlns:svg="http://www.w3.org/2000/svg" xmlns:rdf="http://www.w3.org/1999/02/22-rdf-syntax-ns#" xmlns:cc="http://creativecommons.org/ns#" xmlns:dc="http://purl.org/dc/elements/1.1/"><sodipodi:namedview id="namedview1" pagecolor="#ffffff" bordercolor="#000000" borderopacity="0.25" inkscape:showpageshadow="2" inkscape:pageopacity="0.0" inkscape:pagecheckerboard="0" inkscape:deskcolor="#d1d1d1" inkscape:zoom="1.7539563" inkscape:cx="248.86595" inkscape:cy="1.9954887" inkscape:current-layer="svg8" /><defs id="defs2" /><metadata id="metadata5"><rdf:RDF><cc:Work rdf:about=""><dc:format>image/svg+xml</dc:format><dc:type rdf:resource="http://purl.org/dc/dcmitype/StillImage" /><dc:title /></cc:Work></rdf:RDF></metadata><path id="path858" d="m 64.876573,11.406118 c 1.156116,7.533255 4.791076,12.399863 10.126092,15.649999 l -4.843411,7.050716 C 61.559874,27.664134 58.0057,21.149733 56.258276,11.40755 Z" style="fill:#2b2b2b;fill-opacity:1;stroke:#1a1a1a;stroke-width:3.175;stroke-linecap:butt;stroke-linejoin:round;stroke-miterlimit:4;stroke-dasharray:none;stroke-opacity:1" /><path id="path860" d="m 34.431372,24.218272 c 1.046896,-1.600865 3.234427,-6.936351 3.236885,-7.623986 -0.169501,-0.993627 -1.213313,-2.410602 -1.213313,-2.410602 l 8.748238,-0.0015 c -0.495173,1.314794 -0.393957,1.594577 -1.799077,2.43553 -2.54861,3.800882 -1.193072,10.09114 -4.806217,10.922863 -2.128473,0.293096 -5.304259,-1.582572 -4.166516,-3.322349 z" style="fill:#784421;fill-opacity:1;stroke:#1a1a1a;stroke-width:3.175;stroke-linecap:butt;stroke-linejoin:round;stroke-miterlimit:4;stroke-dasharray:none;stroke-opacity:1" /><path id="path862" d="m 45.565731,15.417394 c 0.105547,0.819732 0.166269,1.382942 0.710624,1.370908 l 6.25063,-0.138143 c 0.512259,-0.01764 0.707953,-0.330397 0.710991,-0.822743 l 6.66e-4,-3.97598 -7.672315,0.0013 z" style="fill:none;stroke:#1a1a1a;stroke-width:1.5875;stroke-linecap:butt;stroke-linejoin:round;stroke-miterlimit:4;stroke-dasharray:none;stroke-opacity:1" /><path id="path864" d="m 47.217673,12.008116 2.070265,0.0014 c -0.473837,0.319555 -0.950331,0.640317 -1.30982,0.907529 0,0 -0.189444,0.647682 -0.08746,0.948718 0.20677,0.610318 0.639468,1.063354 1.311397,1.42405 -0.926088,0.01699 -1.651664,-0.796858 -1.840034,-1.51525 -0.113502,-0.597943 0.09851,-0.878062 0.09851,-0.878062 -0.462574,-0.416484 -0.317165,-0.64122 -0.242865,-0.888376 z" style="fill:#1a1a1a;fill-opacity:1;stroke:#1a1a1a;stroke-width:0.529167;stroke-linecap:round;stroke-linejoin:round;stroke-dasharray:none;stroke-opacity:1" /><path id="path866" d="m 34.238261,6.3813822 c 0,0 -8.371619,1.919844 -8.726668,1.956186 -1.348576,0.138044 -2.869398,-0.03039 -4.363022,-0.8789 L 1.5874762,9.6609952 3.6932743,23.099419 35.119577,13.076188 Z" style="fill:#784421;fill-opacity:1;stroke:#1a1a1a;stroke-width:3.175;stroke-linecap:butt;stroke-linejoin:round;stroke-miterlimit:4;stroke-dasharray:none;stroke-opacity:1" /><path id="path868" d="m 36.454945,14.183684 -1.335368,-1.107496 -0.881316,-6.6948058 4.780635,-4.5455417 40.210825,-0.2457533 -5.44e-4,3.248178 -5.130489,8.54e-4 -0.0011,6.5654628 -8.458371,0.0014 -19.881071,0.0033 -0.554964,2.772929 z" style="fill:#353535;fill-opacity:1;stroke:#1a1a1a;stroke-width:3.175;stroke-linecap:butt;stroke-linejoin:round;stroke-miterlimit:4;stroke-dasharray:none;stroke-opacity:1" /><path id="path870" d="m 74.098688,4.8391192 -0.0011,6.5654628 c 1.91132,1.797868 4.326369,0.21181 6.378615,-0.977242 l 13.796856,-0.0023 c 0.685986,-0.236273 0.84142,-0.6255278 0.901533,-1.3477938 l 8.63e-4,-6.5568273 C 95.165455,2.0897113 95.025387,1.6469406 94.46493,1.5875 L 79.229453,1.58999 79.22891,4.8381682 Z" style="fill:#784421;fill-opacity:1;stroke:#1a1a1a;stroke-width:3.175;stroke-linecap:butt;stroke-linejoin:round;stroke-miterlimit:4;stroke-dasharray:none;stroke-opacity:1" /><path id="path872" d="m 95.538932,7.0064722 31.493568,-0.0052" style="fill:none;stroke:#1a1a1a;stroke-width:2.64583;stroke-linecap:butt;stroke-linejoin:miter;stroke-miterlimit:4;stroke-dasharray:none;stroke-opacity:1" /><path id="path874" d="m 122.60572,0.25814753 2.50024,-4.167e-4 0.0823,4.81468537 0.58406,1.002085 -5.1776,0.365817 z" style="fill:#1a1a1a;fill-opacity:1;stroke:#1a1a1a;stroke-width:0.264583px;stroke-linecap:butt;stroke-linejoin:miter;stroke-opacity:1" /><path style="fill:none;stroke:#1a1a1a;stroke-width:2.64583;stroke-linecap:butt;stroke-linejoin:round;stroke-miterlimit:4;stroke-dasharray:none;stroke-opacity:1" d="m 95.53952,3.4390794 10.92015,-0.00181 2.81323,3.6445478" id="path876" /><path id="path880" d="m 95.174517,9.9925939 28.924893,-0.0048 3.1e-4,-1.87524" style="fill:none;stroke:#1a1a1a;stroke-width:2.64583;stroke-linecap:butt;stroke-linejoin:round;stroke-miterlimit:4;stroke-dasharray:none;stroke-opacity:1" /><path id="path882" d="m 79.229177,4.8382652 15.980791,-0.0027" style="fill:none;stroke:#1a1a1a;stroke-width:2.11667;stroke-linecap:butt;stroke-linejoin:miter;stroke-miterlimit:4;stroke-dasharray:none;stroke-opacity:1" /><path id="path884" d="m 60.60132,9.0465712 11.396867,-0.0019" style="fill:none;stroke:#1a1a1a;stroke-width:2.11667;stroke-linecap:round;stroke-linejoin:miter;stroke-miterlimit:4;stroke-dasharray:none;stroke-opacity:1" /><path id="path888" d="m 74.390104,1.0969317 0.637467,-0.87973777 3.48072,0.048288 c 0,0 1.05389,0.83058497 0.955837,0.83060137 z" style="fill:#000000;stroke:none;stroke-width:0.264583px;stroke-linecap:butt;stroke-linejoin:miter;stroke-opacity:1" /><path id="path892" d="m 74.390104,1.0969317 0.637467,-0.87973777 3.48072,0.048288 c 0,0 1.05389,0.83058497 0.955837,0.83060137 z" style="fill:#1a1a1a;fill-opacity:1;stroke:none;stroke-width:0.264583px;stroke-linecap:butt;stroke-linejoin:miter;stroke-opacity:1" /><rect transform="matrix(0.99999999,-1.6638816e-4,-1.6745281e-4,0.99999999,0,0)" y="0.30298197" x="69.120178" height="0.8063277" width="5.1475563" id="rect894" style="opacity:0.999;fill:#1a1a1a;fill-opacity:1;stroke:none;stroke-width:2.11667;stroke-linecap:round;stroke-linejoin:round;stroke-miterlimit:4;stroke-dasharray:none;paint-order:stroke fill markers" /><path id="path896" d="m 69.212397,1.7304873 -5.27e-4,3.1495379 -12.0646,0.002 5.28e-4,-3.1495394 z" style="fill:#4c4c4c;fill-opacity:1;stroke:#1a1a1a;stroke-width:2.11667;stroke-linecap:butt;stroke-linejoin:round;stroke-miterlimit:4;stroke-dasharray:none;stroke-opacity:1" /><ellipse transform="matrix(0.99999999,-1.6638816e-4,-1.6745281e-4,0.99999999,0,0)" cy="8.3207779" cx="44.277847" id="path966" style="opacity:0.999;fill:#1a1a1a;fill-opacity:1;stroke:none;stroke-width:1.05832;stroke-linecap:round;stroke-linejoin:round;stroke-miterlimit:4;stroke-dasharray:none;stroke-opacity:1;paint-order:normal" rx="1.8408903" ry="1.8350288" /></svg>
