<?xml version="1.0" encoding="UTF-8" standalone="no"?>
<svg width="361.27292" height="102.24764" viewBox="0 0 95.586793 27.053025" version="1.1" id="svg8" sodipodi:docname="ak.svg" inkscape:version="1.3.2 (091e20ef0f, 2023-11-25, custom)" xml:space="preserve" xmlns:inkscape="http://www.inkscape.org/namespaces/inkscape" xmlns:sodipodi="http://sodipodi.sourceforge.net/DTD/sodipodi-0.dtd" xmlns="http://www.w3.org/2000/svg" xmlns:svg="http://www.w3.org/2000/svg" xmlns:rdf="http://www.w3.org/1999/02/22-rdf-syntax-ns#" xmlns:cc="http://creativecommons.org/ns#" xmlns:dc="http://purl.org/dc/elements/1.1/"><sodipodi:namedview id="namedview1" pagecolor="#ffffff" bordercolor="#000000" borderopacity="0.25" inkscape:showpageshadow="2" inkscape:pageopacity="0.0" inkscape:pagecheckerboard="0" inkscape:deskcolor="#d1d1d1" inkscape:zoom="1.7539563" inkscape:cx="159.35403" inkscape:cy="-53.308056" inkscape:current-layer="svg8" /><defs id="defs2" /><metadata id="metadata5"><rdf:RDF><cc:Work rdf:about=""><dc:format>image/svg+xml</dc:format><dc:type rdf:resource="http://purl.org/dc/dcmitype/StillImage" /><dc:title /></cc:Work></rdf:RDF></metadata><path id="path858" d="m 48.324923,9.2713884 c 0.863429,5.5496596 3.57815,9.1348316 7.562534,11.5291686 l -3.617236,5.194178 C 45.847891,21.248476 43.193504,16.449394 41.888464,9.2724434 Z" style="fill:#2b2b2b;fill-opacity:1;stroke:#1a1a1a;stroke-width:2.11667;stroke-linecap:butt;stroke-linejoin:round;stroke-miterlimit:4;stroke-dasharray:none;stroke-opacity:1" /><path id="path860" d="m 25.587337,18.70995 c 0.78186,-1.179338 2.415588,-5.109927 2.417423,-5.6165 -0.126589,-0.731993 -0.906146,-1.775861 -0.906146,-1.775861 l 6.533503,-0.0011 c -0.369813,0.968593 -0.294221,1.174706 -1.343616,1.794226 -1.903395,2.800064 -0.89103,7.434022 -3.589458,8.046743 -1.589621,0.21592 -3.961414,-1.165862 -3.111706,-2.447535 z" style="fill:#784421;fill-opacity:1;stroke:#1a1a1a;stroke-width:2.11667;stroke-linecap:butt;stroke-linejoin:round;stroke-miterlimit:4;stroke-dasharray:none;stroke-opacity:1" /><path id="path862" d="m 33.902882,12.226448 c 0.07883,0.603887 0.124176,1.018797 0.53072,1.009932 L 39.1018,13.134611 c 0.382574,-0.01299 0.528725,-0.243399 0.530994,-0.606105 l 4.97e-4,-2.9290571 -5.729964,9.577e-4 z" style="fill:none;stroke:#1a1a1a;stroke-width:1.5875;stroke-linecap:butt;stroke-linejoin:round;stroke-miterlimit:4;stroke-dasharray:none;stroke-opacity:1" /><path id="path864" d="m 35.136612,9.7148732 1.54615,0.00103 c -0.353879,0.2354124 -0.709742,0.4717138 -0.978222,0.6685658 0,0 -0.141483,0.47714 -0.06532,0.69891 0.154423,0.449614 0.477578,0.78336 0.979399,1.049081 -0.691636,0.01252 -1.233523,-0.587036 -1.374204,-1.116267 -0.08477,-0.440498 0.07357,-0.646859 0.07357,-0.646859 -0.345468,-0.306818 -0.236871,-0.4723786 -0.181381,-0.6544555 z" style="fill:#1a1a1a;fill-opacity:1;stroke:#1a1a1a;stroke-width:0.529167;stroke-linecap:round;stroke-linejoin:round;stroke-dasharray:none;stroke-opacity:1" /><path id="path866" d="m 25.443114,5.5697255 c 0,0 -6.25223,1.4143261 -6.517393,1.4410989 C 17.918555,7.1125197 16.78275,6.9884364 15.667257,6.3633492 L 1.0583173,7.9857773 2.6310041,17.885704 26.101313,10.501709 Z" style="fill:#784421;fill-opacity:1;stroke:#1a1a1a;stroke-width:2.11667;stroke-linecap:butt;stroke-linejoin:round;stroke-miterlimit:4;stroke-dasharray:none;stroke-opacity:1" /><path id="path868" d="m 27.098615,11.317589 -0.997302,-0.81588 -0.658199,-4.9319835 3.570353,-3.3486464 30.03091,-0.1810436 -4.07e-4,2.3928941 -3.831636,6.291e-4 -8.21e-4,4.8366982 -6.31702,0.00103 -14.847909,0.00243 -0.414467,2.0427851 z" style="fill:#353535;fill-opacity:1;stroke:#1a1a1a;stroke-width:2.11667;stroke-linecap:butt;stroke-linejoin:round;stroke-miterlimit:4;stroke-dasharray:none;stroke-opacity:1" /><path id="path870" d="m 55.212334,4.4335587 -8.21e-4,4.8366982 c 1.427443,1.3244681 3.23109,0.1560379 4.763782,-0.7199226 l 10.303995,-0.00169 c 0.512319,-0.1740596 0.628403,-0.4608189 0.673298,-0.9929037 l 6.44e-4,-4.8303365 C 70.945732,2.408107 70.841156,2.0819231 70.422586,2.0381339 l -11.378409,0.00183 -4.06e-4,2.3928942 z" style="fill:#784421;fill-opacity:1;stroke:#1a1a1a;stroke-width:2.11667;stroke-linecap:butt;stroke-linejoin:round;stroke-miterlimit:4;stroke-dasharray:none;stroke-opacity:1" /><path id="path872" d="m 71.22469,6.0302218 23.520544,-0.00383" style="fill:none;stroke:#1a1a1a;stroke-width:2.11667;stroke-linecap:butt;stroke-linejoin:miter;stroke-miterlimit:4;stroke-dasharray:none;stroke-opacity:1" /><path id="path874" d="m 91.439154,1.0588114 1.86727,-3.07e-4 0.06146,3.5469214 0.436197,0.7382241 -3.86682,0.269493 z" style="fill:#1a1a1a;fill-opacity:1;stroke:#1a1a1a;stroke-width:2.11667;stroke-linecap:butt;stroke-linejoin:miter;stroke-dasharray:none;stroke-opacity:1" /><path style="fill:none;stroke:#1a1a1a;stroke-width:2.11667;stroke-linecap:butt;stroke-linejoin:round;stroke-miterlimit:4;stroke-dasharray:none;stroke-opacity:1" d="m 71.225129,3.4021661 8.155566,-0.00133 2.101023,2.684895" id="path876" /><path id="path880" d="m 70.952532,8.2300621 21.602164,-0.00354 2.31e-4,-1.381467" style="fill:none;stroke:#1a1a1a;stroke-width:2.11667;stroke-linecap:butt;stroke-linejoin:round;stroke-miterlimit:4;stroke-dasharray:none;stroke-opacity:1" /><path id="path882" d="m 59.04397,4.4329296 11.935038,-0.00199" style="fill:none;stroke:#1a1a1a;stroke-width:2.11667;stroke-linecap:butt;stroke-linejoin:miter;stroke-miterlimit:4;stroke-dasharray:none;stroke-opacity:1" /><path id="path884" d="m 45.132008,7.5331384 8.511595,-0.0014" style="fill:none;stroke:#1a1a1a;stroke-width:2.11667;stroke-linecap:round;stroke-linejoin:miter;stroke-miterlimit:4;stroke-dasharray:none;stroke-opacity:1" /><path id="path888" d="m 55.429974,1.6767337 0.476084,-0.6480923 2.599528,0.035573 c 0,0 0.787084,0.6118821 0.713854,0.6118941 z" style="fill:#000000;stroke:none;stroke-width:2.11667;stroke-linecap:butt;stroke-linejoin:miter;stroke-dasharray:none;stroke-opacity:1" /><path id="path892" d="m 55.429974,1.6767337 0.476084,-0.6480923 2.599528,0.035573 c 0,0 0.787084,0.6118821 0.713854,0.6118941 z" style="fill:#1a1a1a;fill-opacity:1;stroke:none;stroke-width:2.11667;stroke-linecap:butt;stroke-linejoin:miter;stroke-dasharray:none;stroke-opacity:1" /><rect transform="matrix(0.99999999,-1.6412719e-4,-1.6975958e-4,0.99999999,0,0)" y="1.0918195" x="51.494347" height="0.59401202" width="3.8443828" id="rect894" style="opacity:0.999;fill:#1a1a1a;fill-opacity:1;stroke:none;stroke-width:2.11667;stroke-linecap:round;stroke-linejoin:round;stroke-miterlimit:4;stroke-dasharray:none;paint-order:stroke fill markers" /><path id="path896" d="m 51.563074,2.1434666 -3.94e-4,2.320227 -9.010283,0.00147 3.95e-4,-2.3202281 z" style="fill:#4c4c4c;fill-opacity:1;stroke:#1a1a1a;stroke-width:2.11667;stroke-linecap:butt;stroke-linejoin:round;stroke-miterlimit:4;stroke-dasharray:none;stroke-opacity:1" /><ellipse transform="matrix(0.99999999,-1.6412719e-4,-1.6975958e-4,0.99999999,0,0)" cy="6.9984345" cx="32.941189" id="path966" style="opacity:0.999;fill:#1a1a1a;fill-opacity:1;stroke:none;stroke-width:2.11667;stroke-linecap:round;stroke-linejoin:round;stroke-miterlimit:4;stroke-dasharray:none;stroke-opacity:1;paint-order:normal" rx="1.374844" ry="1.3518438" /></svg>
