<?xml version="1.0" encoding="UTF-8" standalone="no"?>
<!-- Created with Inkscape (http://www.inkscape.org/) -->

<svg width="242.62227" height="164.46828" viewBox="0 0 64.193807 43.515564" version="1.1" id="svg1" inkscape:version="1.3.2 (091e20ef0f, 2023-11-25, custom)" xml:space="preserve" sodipodi:docname="pistol.svg" xmlns:inkscape="http://www.inkscape.org/namespaces/inkscape" xmlns:sodipodi="http://sodipodi.sourceforge.net/DTD/sodipodi-0.dtd" xmlns="http://www.w3.org/2000/svg" xmlns:svg="http://www.w3.org/2000/svg"><sodipodi:namedview id="namedview1" pagecolor="#c3c3c3" bordercolor="#000000" borderopacity="0.25" inkscape:showpageshadow="2" inkscape:pageopacity="0.0" inkscape:pagecheckerboard="true" inkscape:deskcolor="#767676" inkscape:document-units="px" inkscape:zoom="2.2627666" inkscape:cx="104.2971" inkscape:cy="63.417942" inkscape:current-layer="g24" /><defs id="defs1" /><g inkscape:label="Layer 1" inkscape:groupmode="layer" id="layer1" transform="translate(-92.904837,-123.98791)"><g id="g24"><path style="opacity:1;fill:#5d5b60;fill-opacity:1;stroke:#1a1a1a;stroke-width:1.58751;stroke-linecap:square;stroke-linejoin:round;stroke-dasharray:none" d="m 123.51455,125.92844 h 0.85722 27.50883 l -1.091,1.94822 -18.7029,0.15586 -1.71442,1.091 h -6.46808 z" id="path1" sodipodi:nodetypes="cccccccc" /><path style="opacity:1;fill:#4c4a4f;fill-opacity:1;stroke:#1a1a1a;stroke-width:2.11667;stroke-linecap:square;stroke-linejoin:round;stroke-dasharray:none;stroke-opacity:1" d="m 100.60683,128.965 23.57012,-0.15015 -0.99891,-3.23138 h -20.78215 z" id="path17" sodipodi:nodetypes="ccccc" /><path style="fill:#1a1a1a;fill-opacity:1;stroke:none;stroke-width:1.05833;stroke-linecap:square;stroke-linejoin:round" d="m 123.98686,139.39593 c -1.0316,3.09468 -0.49726,4.46374 3.09904,7.75749 -3.21422,-0.45547 -3.72937,-1.92182 -5.61119,-4.62828 0.1361,-0.77188 0.10757,-1.50004 -0.14216,-2.25782 l -0.92177,-0.87139 z" id="path2" sodipodi:nodetypes="ccsccc" /><path style="fill:none;fill-opacity:1;stroke:#1a1a1a;stroke-width:1.58751;stroke-linecap:square;stroke-linejoin:round;stroke-dasharray:none;stroke-opacity:1" d="m 117.68906,148.07967 c 4.3338,1.15915 9.83241,2.09167 13.66577,-0.92625" id="path3" sodipodi:nodetypes="cc" /><path style="opacity:1;fill:#4c4a4f;fill-opacity:1;stroke:#1a1a1a;stroke-width:2.11667;stroke-linecap:square;stroke-linejoin:round;stroke-dasharray:none;stroke-opacity:1" d="m 100.60683,128.965 -3.023316,4.75158 19.241916,0.86262 -1.00629,4.81673 2.55322,0.19789 2.03842,-0.19789 h 13.97478 l 1.65309,-1.05796 -0.22042,-4.86084 -14.46448,-0.0639 0.96044,-3.5844 1.86276,-1.01401 z" id="path18" sodipodi:nodetypes="ccccccccccccc" /><path style="fill:#5d5b60;fill-opacity:1;stroke:#1a1a1a;stroke-width:1.58751;stroke-linecap:square;stroke-linejoin:round;stroke-dasharray:none;stroke-opacity:1" d="m 131.29973,147.15342 2.36603,-0.50907 0.60956,-3.36969 0.11024,-3.87873 h -5.62062 c 2.63974,1.34485 4.25452,2.92506 2.5348,7.75749 z" id="path4" sodipodi:nodetypes="cccccc" /><g id="g22" transform="matrix(1.4915739,0,0,1.5224007,-61.115599,-74.379093)" style="stroke-width:0.66361" /><path style="fill:#5d5b60;fill-opacity:1;stroke:#1a1a1a;stroke-width:1.05833;stroke-linecap:round;stroke-linejoin:round;stroke-opacity:1" d="m 122.31419,129.82885 -0.96044,3.5844" id="path10" /><path style="fill:#1a1a1a;fill-opacity:1;stroke:none;stroke-width:1.05833;stroke-linecap:square;stroke-linejoin:round;stroke-opacity:1" d="m 113.03315,167.50341 c -4.83735,-0.75076 -9.15501,-0.98183 -13.715021,-1.45524 l -0.287786,-0.13115 c -0.286334,-0.28537 0.03118,-1.09647 0.02914,-1.1021 l 11.051257,-0.31169 2.68854,-0.58448 c -0.10494,1.28509 0.69382,2.49908 0.23379,3.58472 z" id="path11" sodipodi:nodetypes="ccccccc" /><ellipse style="fill:none;fill-opacity:1;stroke:#1a1a1a;stroke-width:0.793751;stroke-linecap:square;stroke-linejoin:round;stroke-dasharray:none;stroke-opacity:1" id="path12" cx="96.448471" cy="164.68628" rx="1.7568293" ry="1.8001395" /><path id="path13" style="opacity:1;fill:#1a1a1a;fill-opacity:1;stroke:#1a1a1a;stroke-width:0.529167;stroke-linecap:square;stroke-linejoin:round;stroke-dasharray:none;stroke-opacity:1" d="m 98.892589,126.37134 c -0.332094,-0.005 -0.688864,0.0583 -0.979483,0.27276 -0.571051,0.42143 -0.226624,1.32252 -0.226624,1.32252 l 1.033217,2.8241 0.06892,0.24797 3.225001,-4.60192 -1.26121,0.33889 -0.820367,-0.20045 c 0,0 -0.485933,-0.1961 -1.039399,-0.20387 z m 0.06827,0.56896 a 0.62015855,0.62015855 0 0 1 0.619923,0.61992 0.62015855,0.62015855 0 0 1 -0.619923,0.62061 0.62015855,0.62015855 0 0 1 -0.620622,-0.62061 0.62015855,0.62015855 0 0 1 0.620622,-0.61992 z" /><path style="opacity:1;fill:#5d5b60;fill-opacity:1;stroke:#1a1a1a;stroke-width:2.11667;stroke-linecap:square;stroke-linejoin:round;stroke-dasharray:none;stroke-opacity:1" d="m 113.01644,163.97386 -5.16556,0.88972 h -8.940238 l -4.073853,-0.43836 c -0.714499,-1.58251 -0.170308,-3.03572 0.07797,-4.5978 0.899695,-3.83856 2.698073,-9.09512 4.287397,-13.40722 1.038614,-2.613 1.610934,-6.9819 -3.62067,-7.80753 -4.138056,-1.10859 0.844153,-2.03605 1.250014,-3.3548 l 0.945015,-1.84462 c 6.449345,0.103 12.549995,0 19.000725,0 l -0.9581,5.98272 2.55322,0.19788 c -2.60256,1.55217 -2.61594,6.3508 -0.86378,7.55961 l -0.18985,1.5302 c -0.12236,0.83691 -1.82069,0.75552 -2.08496,1.58046 -1.30887,4.086 -2.44853,9.01067 -2.21733,13.70977 z" id="path14" sodipodi:nodetypes="ccccccccccccccscc" /><path id="path15" style="opacity:1;fill:#464448;fill-opacity:1;stroke:#1a1a1a;stroke-width:1.58751;stroke-linecap:square;stroke-linejoin:round;stroke-dasharray:none;stroke-opacity:1" d="m 105.99104,139.51616 -2.76854,1.8374 0.25171,2.77725 -4.832345,16.86545 h 0.277486 l 10.846959,-0.35346 2.06757,-10.85652 0.0668,-0.35346 c -0.74084,-0.41998 -1.19993,-1.20658 -1.20242,-2.0602 3e-5,-1.1819 0.8666,-2.18383 2.03297,-2.35058 l 1.03695,-5.50588 z" sodipodi:nodetypes="cccccccccccc" /><path style="opacity:1;fill:#4c4a4f;fill-opacity:1;stroke:#1a1a1a;stroke-width:2.11667;stroke-linecap:round;stroke-linejoin:round;stroke-dasharray:none;stroke-opacity:1" d="m 136.03865,138.33797 v 0 h 18.21877 v -1.8502 l 1.77289,-0.27275 0.01,-3.03878 -20.22093,0.30089 z" id="path20" sodipodi:nodetypes="cccccccc" /><path style="opacity:1;fill:#5d5b60;fill-opacity:1;stroke:#1a1a1a;stroke-width:2.11667;stroke-linecap:round;stroke-linejoin:round;stroke-dasharray:none;stroke-opacity:1" d="m 156.03964,133.17624 -34.68589,0.23704 0.96044,-3.5844 0.93138,-0.507 7.12671,-0.19836 1.71442,-1.091 18.7029,-0.15586 1.091,-1.94822 0.63412,-0.8822 h 3.1685 l 0.35642,0.64747 v 1.30871 2.28682 3.887" id="path22" sodipodi:nodetypes="cccccccccccccc" /><path style="opacity:1;fill:#464448;fill-opacity:1;stroke:#1a1a1a;stroke-width:1.58751;stroke-linecap:round;stroke-linejoin:round;stroke-dasharray:none;stroke-opacity:1" d="M 121.35375,133.41325 H 97.776521" id="path23" /></g></g></svg>
