<?xml version="1.0" encoding="UTF-8" standalone="no"?>
<!-- Created with Inkscape (http://www.inkscape.org/) -->

<svg width="184.00516" height="124.38835" viewBox="0 0 48.684697 32.911084" version="1.1" id="svg1" inkscape:version="1.3.2 (091e20ef0f, 2023-11-25, custom)" xml:space="preserve" sodipodi:docname="pistol.svg" xmlns:inkscape="http://www.inkscape.org/namespaces/inkscape" xmlns:sodipodi="http://sodipodi.sourceforge.net/DTD/sodipodi-0.dtd" xmlns="http://www.w3.org/2000/svg" xmlns:svg="http://www.w3.org/2000/svg"><sodipodi:namedview id="namedview1" pagecolor="#c3c3c3" bordercolor="#000000" borderopacity="0.25" inkscape:showpageshadow="2" inkscape:pageopacity="0.0" inkscape:pagecheckerboard="true" inkscape:deskcolor="#767676" inkscape:document-units="px" inkscape:zoom="4.5255332" inkscape:cx="86.509143" inkscape:cy="40.989645" inkscape:current-layer="g24" /><defs id="defs1" /><g inkscape:label="Layer 1" inkscape:groupmode="layer" id="layer1" transform="translate(-100.66139,-129.12351)"><g id="g24"><path style="opacity:1;fill:#5d5b60;fill-opacity:1;stroke:#1a1a1a;stroke-width:1.5875;stroke-linecap:square;stroke-linejoin:round;stroke-dasharray:none" d="m 123.88641,130.8437 h 0.64311 20.63799 l -0.8185,1.46161 -14.0315,0.11693 -1.28622,0.8185 h -4.85255 z" id="path1" sodipodi:nodetypes="cccccccc" /><path style="opacity:1;fill:#4c4a4f;fill-opacity:1;stroke:#1a1a1a;stroke-width:2.11667;stroke-linecap:square;stroke-linejoin:round;stroke-dasharray:none;stroke-opacity:1" d="m 106.70032,133.12182 17.68304,-0.11265 -0.74941,-2.42428 h -15.59143 z" id="path17" sodipodi:nodetypes="ccccc" /><path style="fill:#1a1a1a;fill-opacity:1;stroke:none;stroke-width:1.05833;stroke-linecap:square;stroke-linejoin:round" d="m 124.24075,140.94743 c -0.77394,2.32173 -0.37306,3.34884 2.325,5.81991 -2.41141,-0.3417 -2.79789,-1.44181 -4.20969,-3.47228 0.1021,-0.57909 0.0807,-1.12537 -0.10666,-1.69389 l -0.69154,-0.65374 z" id="path2" sodipodi:nodetypes="ccsccc" /><path style="fill:none;fill-opacity:1;stroke:#1a1a1a;stroke-width:1.5875;stroke-linecap:square;stroke-linejoin:round;stroke-dasharray:none;stroke-opacity:1" d="m 119.51594,147.46225 c 3.25135,0.86962 7.37659,1.56923 10.25249,-0.69491" id="path3" sodipodi:nodetypes="cc" /><path style="opacity:1;fill:#4c4a4f;fill-opacity:1;stroke:#1a1a1a;stroke-width:2.11667;stroke-linecap:square;stroke-linejoin:round;stroke-dasharray:none;stroke-opacity:1" d="m 106.70032,133.12182 -2.26819,3.56479 14.43589,0.64716 -0.75495,3.61366 1.91551,0.14846 1.52928,-0.14846 h 10.48432 l 1.2402,-0.79371 -0.16536,-3.64676 -10.85171,-0.0479 0.72055,-2.68913 1.3975,-0.76074 z" id="path18" sodipodi:nodetypes="ccccccccccccc" /><path style="fill:#5d5b60;fill-opacity:1;stroke:#1a1a1a;stroke-width:1.5875;stroke-linecap:square;stroke-linejoin:round;stroke-dasharray:none;stroke-opacity:1" d="m 129.72709,146.76734 1.77508,-0.38192 0.45731,-2.52804 0.0827,-2.90995 h -4.21676 c 1.98041,1.00895 3.19187,2.19447 1.90168,5.81991 z" id="path4" sodipodi:nodetypes="cccccc" /><g id="g22" transform="matrix(1.1190257,0,0,1.1421529,-14.628934,-19.433312)" style="stroke-width:0.884541" /><path style="fill:#5d5b60;fill-opacity:1;stroke:#1a1a1a;stroke-width:1.05833;stroke-linecap:round;stroke-linejoin:round;stroke-opacity:1" d="m 122.98586,133.76991 -0.72055,2.68913" id="path10" /><path style="fill:#1a1a1a;fill-opacity:1;stroke:none;stroke-width:1.05833;stroke-linecap:square;stroke-linejoin:round;stroke-opacity:1" d="m 116.02293,162.03454 c -3.62913,-0.56324 -6.86838,-0.7366 -10.28944,-1.09176 l -0.2159,-0.0984 c -0.21482,-0.21409 0.0234,-0.8226 0.0219,-0.82682 l 8.291,-0.23385 2.01703,-0.43849 c -0.0787,0.96412 0.52052,1.87489 0.17539,2.68937 z" id="path11" sodipodi:nodetypes="ccccccc" /><ellipse style="fill:none;fill-opacity:1;stroke:#1a1a1a;stroke-width:0.79375;stroke-linecap:square;stroke-linejoin:round;stroke-dasharray:none;stroke-opacity:1" id="path12" cx="103.58059" cy="159.92105" rx="1.3180285" ry="1.3505213" /><path id="path13" style="opacity:1;fill:#1a1a1a;fill-opacity:1;stroke:#1a1a1a;stroke-width:0.529167;stroke-linecap:square;stroke-linejoin:round;stroke-dasharray:none;stroke-opacity:1" d="m 105.41424,131.17597 c -0.24915,-0.004 -0.51681,0.0437 -0.73484,0.20464 -0.42842,0.31617 -0.17002,0.99219 -0.17002,0.99219 l 0.77515,2.11873 0.0517,0.18604 2.4195,-3.45251 -0.9462,0.25425 -0.61547,-0.15038 c 0,0 -0.36456,-0.14713 -0.77979,-0.15296 z m 0.0512,0.42685 a 0.46526244,0.46526244 0 0 1 0.46508,0.46509 0.46526244,0.46526244 0 0 1 -0.46508,0.4656 0.46526244,0.46526244 0 0 1 -0.46561,-0.4656 0.46526244,0.46526244 0 0 1 0.46561,-0.46509 z" /><path style="opacity:1;fill:#5d5b60;fill-opacity:1;stroke:#1a1a1a;stroke-width:2.11667;stroke-linecap:square;stroke-linejoin:round;stroke-dasharray:none;stroke-opacity:1" d="m 116.01039,159.38656 -3.87536,0.6675 h -6.70725 l -3.05633,-0.32887 c -0.53604,-1.18725 -0.12777,-2.27749 0.0585,-3.44941 0.67498,-2.87981 2.02418,-6.82345 3.21654,-10.05852 0.7792,-1.96035 1.20857,-5.23804 -2.71634,-5.85745 -3.104499,-0.83171 0.63331,-1.52752 0.9378,-2.51688 l 0.70898,-1.38389 c 4.8385,0.0773 9.4154,0 14.25494,0 l -0.7188,4.48842 1.91551,0.14846 c -1.95253,1.16448 -1.96256,4.76457 -0.64804,5.67145 l -0.14243,1.14801 c -0.0918,0.62787 -1.36594,0.56681 -1.5642,1.18571 -0.98196,3.06544 -1.83697,6.76009 -1.66352,10.2855 z" id="path14" sodipodi:nodetypes="ccccccccccccccscc" /><path id="path15" style="opacity:1;fill:#464448;fill-opacity:1;stroke:#1a1a1a;stroke-width:1.5875;stroke-linecap:square;stroke-linejoin:round;stroke-dasharray:none;stroke-opacity:1" d="m 110.73972,141.03763 -2.07704,1.37848 0.18883,2.08357 -3.62537,12.653 h 0.20818 l 8.13773,-0.26518 1.55115,-8.1449 0.0501,-0.26518 c -0.5558,-0.31508 -0.90022,-0.90521 -0.90209,-1.54563 2e-5,-0.88669 0.65015,-1.63837 1.5252,-1.76347 l 0.77795,-4.13069 z" sodipodi:nodetypes="cccccccccccc" /><path style="opacity:1;fill:#4c4a4f;fill-opacity:1;stroke:#1a1a1a;stroke-width:2.11667;stroke-linecap:round;stroke-linejoin:round;stroke-dasharray:none;stroke-opacity:1" d="m 133.28238,140.15372 v 0 h 13.6683 v -1.38808 l 1.33007,-0.20463 0.007,-2.27979 -15.17037,0.22574 z" id="path20" sodipodi:nodetypes="cccccccc" /><path style="opacity:1;fill:#5d5b60;fill-opacity:1;stroke:#1a1a1a;stroke-width:2.11667;stroke-linecap:round;stroke-linejoin:round;stroke-dasharray:none;stroke-opacity:1" d="m 148.28775,136.28122 -26.02244,0.17784 0.72055,-2.68913 0.69875,-0.38037 5.34668,-0.14882 1.28622,-0.8185 14.0315,-0.11693 0.8185,-1.46161 0.47574,-0.66186 h 2.3771 l 0.2674,0.48575 v 0.98184 1.71564 2.91615" id="path22" sodipodi:nodetypes="cccccccccccccc" /><path style="opacity:1;fill:#464448;fill-opacity:1;stroke:#1a1a1a;stroke-width:1.5875;stroke-linecap:round;stroke-linejoin:round;stroke-dasharray:none;stroke-opacity:1" d="M 122.26531,136.45904 H 104.57693" id="path23" /></g></g></svg>
