<?xml version="1.0" encoding="UTF-8" standalone="no"?>
<!-- Created with Inkscape (http://www.inkscape.org/) -->

<svg width="307.13373" height="65.840195" viewBox="0 0 81.262461 17.420219" version="1.1" id="svg1" inkscape:version="1.3.2 (091e20ef0f, 2023-11-25, custom)" xml:space="preserve" sodipodi:docname="shotgun.svg" xmlns:inkscape="http://www.inkscape.org/namespaces/inkscape" xmlns:sodipodi="http://sodipodi.sourceforge.net/DTD/sodipodi-0.dtd" xmlns="http://www.w3.org/2000/svg" xmlns:svg="http://www.w3.org/2000/svg"><sodipodi:namedview id="namedview1" pagecolor="#c3c3c3" bordercolor="#000000" borderopacity="0.25" inkscape:showpageshadow="2" inkscape:pageopacity="0.0" inkscape:pagecheckerboard="true" inkscape:deskcolor="#767676" inkscape:document-units="px" inkscape:zoom="2.2627666" inkscape:cx="156.66662" inkscape:cy="13.037138" inkscape:current-layer="layer1" /><defs id="defs1" /><g inkscape:label="Layer 1" inkscape:groupmode="layer" id="layer1" transform="translate(-159.70778,-135.46746)"><path style="fill:#5d5b60;fill-opacity:1;stroke:#1a1a1a;stroke-width:2.11879;stroke-linecap:round;stroke-linejoin:round;stroke-dasharray:none;stroke-opacity:1" d="m 208.42639,138.42076 h 30.44005 v 3.05119 h -30.44005 z" id="path30" sodipodi:nodetypes="ccccc" /><path style="fill:#8b6743;fill-opacity:1;stroke:#1a1a1a;stroke-width:2.11666;stroke-linecap:round;stroke-linejoin:round;stroke-dasharray:none;stroke-opacity:1" d="m 211.07246,142.88566 h 14.0894 c 4.21097,-0.0343 4.10109,-2.04263 2.9553,-4.46477 h -17.0447 z" id="path29" sodipodi:nodetypes="ccccc" /><path style="fill:#8b6743;fill-opacity:1;stroke:#1a1a1a;stroke-width:2.11667;stroke-linecap:round;stroke-linejoin:round;stroke-dasharray:none;stroke-opacity:1" d="m 181.85072,145.75501 -17.77297,6.07435 c -0.071,-0.0508 -4.66483,0.22976 -2.92116,-2.08994 1.59941,-2.12778 1.29679,-6.3381 1.91887,-8.19706 0.0655,-0.19594 0.50997,-0.36579 0.50997,-0.36579 l 18.01931,-1.79662 c 1.17481,0.75672 1.9116,0.9627 2.69537,1.22775 l 6.90954,-2.45185 0.56031,5.16919 c -2.02416,0.64363 -3.28354,1.26815 -3.9539,2.71672 z" id="path16" sodipodi:nodetypes="ccssccccccc" /><path style="fill:none;fill-opacity:1;stroke:#1a1a1a;stroke-width:1.58909;stroke-linecap:round;stroke-linejoin:round;stroke-dasharray:none;stroke-opacity:1" d="m 191.67692,142.96083 c 1.35564,5.1528 5.48662,2.64193 6.54073,0.78267 0.0847,-0.14945 -0.16052,-0.80887 -0.11604,-0.94806" id="path25" sodipodi:nodetypes="csc" /><path style="fill:#1a1a1a;fill-opacity:1;stroke:none;stroke-width:0.794542;stroke-linecap:round;stroke-linejoin:round;stroke-dasharray:none;stroke-opacity:1" d="m 194.78072,142.73376 v 0 c 0.0687,0.98256 0.19479,1.68948 0.81485,2.42071 l 0.0154,-2.37561 z" id="path26" sodipodi:nodetypes="ccccc" /><path id="rect27" style="fill:#1a1a1a;stroke-width:0.794542;stroke-linecap:round;stroke-linejoin:round;stroke-dasharray:none" d="m 197.57888,142.3729 h 2.50605 c 0,0 0.11071,1.19856 -0.27674,1.57122 -0.53614,0.51567 -2.22931,0.33829 -2.22931,0.33829 z" sodipodi:nodetypes="ccacc" /><ellipse style="fill:#1a1a1a;fill-opacity:1;stroke:#1a1a1a;stroke-width:0.794542;stroke-linecap:round;stroke-linejoin:round;stroke-dasharray:none;stroke-opacity:1" id="path32" cx="236.54947" cy="136.46236" rx="0.61109781" ry="0.59762263" /><path style="fill:#4c4a4f;fill-opacity:1;stroke:#1a1a1a;stroke-width:2.11667;stroke-linecap:round;stroke-linejoin:round;stroke-dasharray:none;stroke-opacity:1" d="m 209.42905,143.19328 -16.47928,-0.14772 -1.17981,0.27948 -0.56031,-5.16919 3.0773,-0.94711 3.65281,-0.36147 h 11.13236 l 0.0652,0.92368 h 1.93511 v 4.28586 c -0.49432,0.50321 -0.99993,0.86999 -1.64341,1.13647 z" id="path27" sodipodi:nodetypes="ccccccccccc" /><path style="fill:#8b6743;fill-opacity:1;stroke:#1a1a1a;stroke-width:2.11878;stroke-linecap:round;stroke-linejoin:round;stroke-dasharray:none;stroke-opacity:1" d="m 165.74681,141.0131 -1.14722,10.63791" id="path31" /><path style="fill:#5d5b60;fill-opacity:1;stroke:#1a1a1a;stroke-width:2.11667;stroke-linecap:round;stroke-linejoin:round;stroke-dasharray:none;stroke-opacity:1" d="m 208.42639,136.84727 h 31.48552 v 2.33318 h -31.48552 z" id="path28" sodipodi:nodetypes="ccccc" /></g></svg>
