<?xml version="1.0" encoding="UTF-8" standalone="no"?>
<!-- Created with Inkscape (http://www.inkscape.org/) -->

<svg width="412.17035" height="90.451668" viewBox="0 0 109.0534 23.932004" version="1.1" id="svg1" inkscape:version="1.3.2 (091e20ef0f, 2023-11-25, custom)" xml:space="preserve" sodipodi:docname="shotgun.svg" xmlns:inkscape="http://www.inkscape.org/namespaces/inkscape" xmlns:sodipodi="http://sodipodi.sourceforge.net/DTD/sodipodi-0.dtd" xmlns="http://www.w3.org/2000/svg" xmlns:svg="http://www.w3.org/2000/svg"><sodipodi:namedview id="namedview1" pagecolor="#c3c3c3" bordercolor="#000000" borderopacity="0.25" inkscape:showpageshadow="2" inkscape:pageopacity="0.0" inkscape:pagecheckerboard="true" inkscape:deskcolor="#767676" inkscape:document-units="px" inkscape:zoom="1.6000176" inkscape:cx="170.31063" inkscape:cy="54.686898" inkscape:current-layer="layer1" /><defs id="defs1" /><g inkscape:label="Layer 1" inkscape:groupmode="layer" id="layer1" transform="translate(-159.18026,-135.46786)"><path style="fill:#5d5b60;fill-opacity:1;stroke:#1a1a1a;stroke-width:2.11667;stroke-linecap:round;stroke-linejoin:round;stroke-dasharray:none;stroke-opacity:1" d="m 224.84455,139.37867 h 40.9252 v 3.39094 h -40.9252 z" id="path30" sodipodi:nodetypes="ccccc" /><path style="fill:#8b6743;fill-opacity:1;stroke:#1a1a1a;stroke-width:3.175;stroke-linecap:round;stroke-linejoin:round;stroke-dasharray:none;stroke-opacity:1" d="m 228.40207,144.37739 h 18.94252 c 5.66145,-0.0384 5.51372,-2.28691 3.97326,-4.99872 h -22.91578 z" id="path29" sodipodi:nodetypes="ccccc" /><path style="fill:#8b6743;fill-opacity:1;stroke:#1a1a1a;stroke-width:3.175;stroke-linecap:round;stroke-linejoin:round;stroke-dasharray:none;stroke-opacity:1" d="m 189.11483,149.46156 -23.89492,8.35082 c -0.0954,-0.0699 -6.27164,0.31586 -3.92736,-2.87318 2.15034,-2.92521 1.74348,-8.71342 2.57983,-11.26906 0.0881,-0.26937 0.68563,-0.50287 0.68563,-0.50287 l 24.22611,-2.46994 c 1.57947,1.04032 2.57005,1.32349 3.6238,1.68788 l 9.28954,-3.37073 0.75331,7.10644 c -2.72139,0.88484 -4.41456,1.7434 -5.31583,3.73485 z" id="path16" sodipodi:nodetypes="ccssccccccc" /><path style="fill:none;fill-opacity:1;stroke:#1a1a1a;stroke-width:1.5875;stroke-linecap:round;stroke-linejoin:round;stroke-dasharray:none;stroke-opacity:1" d="m 202.32568,145.62021 c 1.8226,7.0839 7.37651,3.63204 8.79371,1.07599 0.11392,-0.20546 -0.21582,-1.11201 -0.15601,-1.30336" id="path25" sodipodi:nodetypes="csc" /><path style="fill:#1a1a1a;fill-opacity:1;stroke:none;stroke-width:0.79375;stroke-linecap:round;stroke-linejoin:round;stroke-dasharray:none;stroke-opacity:1" d="m 206.49859,145.30804 v 0 c 0.0924,1.3508 0.26189,2.32265 1.09553,3.32792 l 0.0207,-3.26591 z" id="path26" sodipodi:nodetypes="ccccc" /><path id="rect27" style="fill:#1a1a1a;stroke-width:0.79375;stroke-linecap:round;stroke-linejoin:round" d="m 210.26059,144.81194 h 3.36927 c 0,0 0.14884,1.64775 -0.37207,2.16006 -0.72082,0.70893 -2.9972,0.46507 -2.9972,0.46507 z" sodipodi:nodetypes="ccacc" /><circle style="fill:#1a1a1a;fill-opacity:1;stroke:#1a1a1a;stroke-width:0.79375;stroke-linecap:round;stroke-linejoin:round;stroke-dasharray:none;stroke-opacity:1" id="path32" cx="262.65469" cy="136.68633" r="0.82159185" /><path style="fill:#5d5b60;fill-opacity:1;stroke:#1a1a1a;stroke-width:2.11667;stroke-linecap:round;stroke-linejoin:round;stroke-dasharray:none;stroke-opacity:1" d="m 224.84455,137.21549 h 42.33078 v 2.47428 h -42.33078 z" id="path28" sodipodi:nodetypes="ccccc" /><path style="fill:#4c4a4f;fill-opacity:1;stroke:#1a1a1a;stroke-width:3.175;stroke-linecap:round;stroke-linejoin:round;stroke-dasharray:none;stroke-opacity:1" d="m 226.19258,145.93978 -22.15561,-0.20308 -1.5862,0.38422 -0.75331,-7.10644 4.13729,-1.30205 4.91102,-0.49694 h 14.96693 l 0.0877,1.26984 h 2.60167 v 5.89206 c -0.6646,0.6918 -1.34437,1.19604 -2.20949,1.56239 z" id="path27" sodipodi:nodetypes="ccccccccccc" /><path style="fill:#8b6743;fill-opacity:1;stroke:#1a1a1a;stroke-width:2.11667;stroke-linecap:round;stroke-linejoin:round;stroke-dasharray:none;stroke-opacity:1" d="m 167.46386,142.94254 -1.54238,14.86984" id="path31" /></g></svg>
