<?xml version="1.0" encoding="UTF-8" standalone="no"?>
<!-- Created with Inkscape (http://www.inkscape.org/) -->

<svg width="19.63941" height="40.848701" viewBox="0 0 5.1962605 10.807886" version="1.1" id="svg1" inkscape:version="1.3.2 (091e20ef0f, 2023-11-25, custom)" xml:space="preserve" sodipodi:docname="bone-particle.svg" xmlns:inkscape="http://www.inkscape.org/namespaces/inkscape" xmlns:sodipodi="http://sodipodi.sourceforge.net/DTD/sodipodi-0.dtd" xmlns="http://www.w3.org/2000/svg" xmlns:svg="http://www.w3.org/2000/svg"><sodipodi:namedview id="namedview1" pagecolor="#c3c3c3" bordercolor="#000000" borderopacity="0.25" inkscape:showpageshadow="2" inkscape:pageopacity="0.0" inkscape:pagecheckerboard="true" inkscape:deskcolor="#767676" inkscape:document-units="px" inkscape:zoom="6.4000705" inkscape:cx="-30.468414" inkscape:cy="26.484083" inkscape:current-layer="layer1" /><defs id="defs1"><clipPath clipPathUnits="userSpaceOnUse" id="clipPath1517"><path id="path1519" style="opacity:1;fill:#aa0000;fill-opacity:0.994177;stroke:#1a1a1a;stroke-width:0.153458;stroke-linecap:butt;stroke-linejoin:miter;stroke-miterlimit:4;stroke-dasharray:none;stroke-opacity:1" d="m -54.046513,106.38622 0.89618,0.71392 a 0.22791817,0.22791817 0 0 1 0.0859,0.17827 v 1.09554 a 0.99790766,0.99790766 0 0 0 0.16306,0.54667 l 0.12414,0.18958 a 1.2502196,1.2502196 0 0 0 0.42085,0.39784 l 1.39483,0.80526 a 0.28173,0.28173 0 0 1 0.13526,0.29995 l -0.0784,0.38681 a 0.27543694,0.27543694 0 0 1 -0.24186,0.21929 l -2.52239,0.25859 a 0.32849307,0.32849307 0 0 0 -0.27357,0.21012 l -0.0851,0.22397 a 0.29378643,0.29378643 0 0 1 -0.27464,0.18945 h -0.95655 a 0.29376695,0.29376695 0 0 1 -0.27463,-0.18945 l -0.0871,-0.22938 a 0.32847769,0.32847769 0 0 0 -0.27357,-0.21013 l -2.469,-0.25316 a 0.27544252,0.27544252 0 0 1 -0.24186,-0.2193 l -0.0784,-0.38681 a 0.28172137,0.28172137 0 0 1 0.13526,-0.29995 l 1.39496,-0.80527 a 1.250137,1.250137 0 0 0 0.42085,-0.39783 l 0.12414,-0.18958 a 0.99790766,0.99790766 0 0 0 0.16306,-0.54667 v -1.09554 a 0.22791817,0.22791817 0 0 1 0.0859,-0.17827 l 0.89618,-0.71392 a 0.05292737,0.05292737 0 0 1 0.0859,0.0414 v 0.63113 0.57139 c 0,0.0607 0.0464,0.0934 0.10414,0.075 0.10528,-0.0336 0.27157,-0.0822 0.40876,-0.1017 0.06,-0.008 0.15875,-0.008 0.2186,0.002 0.13772,0.0219 0.30442,0.0737 0.40965,0.10925 0.0574,0.0194 0.1035,-0.0126 0.1035,-0.0732 v -0.36281 -0.8508 a 0.05292737,0.05292737 0 0 1 0.0859,-0.0414 z" /></clipPath></defs><g inkscape:label="Layer 1" inkscape:groupmode="layer" id="layer1" transform="translate(-70.552732,-146.38523)"><path id="path1" style="fill:#f9f9f9;stroke:none;stroke-width:0.581911;stroke-linecap:square;stroke-dasharray:none" d="m 72.871294,146.95743 -0.804668,0.91147 -0.256882,0.61375 v 5.6554 a 1.4206587,1.4206587 0 0 0 -0.966056,1.34341 1.4206587,1.4206587 0 0 0 1.420672,1.4207 1.4206587,1.4206587 0 0 0 0.8865,-0.31582 1.4206587,1.4206587 0 0 0 0.8865,0.31582 1.4206587,1.4206587 0 0 0 1.420677,-1.4207 1.4206587,1.4206587 0 0 0 -0.850132,-1.30249 v -5.78271 l -1.061531,0.60011 z" /><path id="path2" style="fill:#d40000;stroke:none;stroke-width:0.581911;stroke-linecap:square;stroke-dasharray:none" d="m 73.357734,148.42638 a 0.62684377,0.62684377 0 0 0 -0.506894,0.61147 0.62684377,0.62684377 0 0 0 0.436427,0.59557 0.89204696,0.89204696 0 0 0 0.431889,0.72286 0.62684377,0.62684377 0 0 0 -0.06365,0.27275 0.62684377,0.62684377 0 0 0 0.625101,0.62738 0.62684377,0.62684377 0 0 0 0.327321,-0.0931 v -2.35265 a 0.89204696,0.89204696 0 0 0 -0.429614,-0.11139 0.89204696,0.89204696 0 0 0 -0.127301,0.0119 l -0.50462,0.28638 z m -1.229733,4.32343 a 0.62684377,0.62684377 0 0 0 -0.318231,0.0887 v 1.30023 a 1.4206587,1.4206587 0 0 0 -0.425068,0.23641 0.62684377,0.62684377 0 0 0 0.565996,0.36822 0.62684377,0.62684377 0 0 0 0.550085,-0.32958 0.62684377,0.62684377 0 0 0 0.09318,0.009 0.62684377,0.62684377 0 0 0 0.627371,-0.62739 0.62684377,0.62684377 0 0 0 -0.497804,-0.61371 0.62684377,0.62684377 0 0 0 -0.595543,-0.43189 z" /><path id="path3" style="fill:none;stroke:#333333;stroke-width:0.581911;stroke-linecap:square;stroke-dasharray:none" d="m 72.871294,146.95743 -0.804668,0.91147 -0.256882,0.61375 v 5.6554 a 1.4206587,1.4206587 0 0 0 -0.966056,1.34341 1.4206587,1.4206587 0 0 0 1.420672,1.4207 1.4206587,1.4206587 0 0 0 0.8865,-0.31582 1.4206587,1.4206587 0 0 0 0.8865,0.31582 1.4206587,1.4206587 0 0 0 1.420677,-1.4207 1.4206587,1.4206587 0 0 0 -0.850132,-1.30249 v -5.78271 l -1.061531,0.60011 z" /></g></svg>
