<?xml version="1.0" encoding="UTF-8" standalone="no"?>
<svg width="552.87482" height="153.07686" viewBox="0 0 146.28146 40.501589" version="1.1" id="svg8" sodipodi:docname="ak.svg" inkscape:version="1.3.2 (091e20ef0f, 2023-11-25, custom)" xml:space="preserve" xmlns:inkscape="http://www.inkscape.org/namespaces/inkscape" xmlns:sodipodi="http://sodipodi.sourceforge.net/DTD/sodipodi-0.dtd" xmlns="http://www.w3.org/2000/svg" xmlns:svg="http://www.w3.org/2000/svg" xmlns:rdf="http://www.w3.org/1999/02/22-rdf-syntax-ns#" xmlns:cc="http://creativecommons.org/ns#" xmlns:dc="http://purl.org/dc/elements/1.1/"><sodipodi:namedview id="namedview1" pagecolor="#ffffff" bordercolor="#000000" borderopacity="0.25" inkscape:showpageshadow="2" inkscape:pageopacity="0.0" inkscape:pagecheckerboard="0" inkscape:deskcolor="#d1d1d1" inkscape:zoom="1.2402344" inkscape:cx="215.28189" inkscape:cy="38.299212" inkscape:current-layer="svg8" /><defs id="defs2" /><metadata id="metadata5"><rdf:RDF><cc:Work rdf:about=""><dc:format>image/svg+xml</dc:format><dc:type rdf:resource="http://purl.org/dc/dcmitype/StillImage" /><dc:title /></cc:Work></rdf:RDF></metadata><path id="path858" d="m 74.325694,13.079601 c 1.338392,8.748819 5.546447,14.400702 11.722592,18.175279 l -5.607033,8.188417 C 70.486078,31.961006 66.371546,24.395443 64.348621,13.081265 Z" style="fill:#2b2b2b;fill-opacity:1;stroke:#1a1a1a;stroke-width:2.11667;stroke-linecap:butt;stroke-linejoin:round;stroke-miterlimit:4;stroke-dasharray:none;stroke-opacity:1" /><path id="path860" d="m 39.080445,27.959122 c 1.211952,-1.859181 3.744373,-8.0556 3.747218,-8.854192 -0.196225,-1.153958 -1.404605,-2.799575 -1.404605,-2.799575 l 10.127501,-0.0017 c -0.573243,1.526949 -0.456069,1.851878 -2.082722,2.828526 -2.95043,4.414192 -1.381175,11.719444 -5.563976,12.685373 -2.464052,0.34039 -6.140538,-1.837935 -4.823416,-3.858442 z" style="fill:#784421;fill-opacity:1;stroke:#1a1a1a;stroke-width:2.11667;stroke-linecap:butt;stroke-linejoin:round;stroke-miterlimit:4;stroke-dasharray:none;stroke-opacity:1" /><path id="path862" d="m 51.970268,17.738135 c 0.122187,0.952004 0.192483,1.606094 0.822662,1.592118 l 7.236116,-0.160434 c 0.593023,-0.02048 0.819571,-0.38371 0.823088,-0.9555 l 7.71e-4,-4.617543 -8.881947,0.0015 z" style="fill:none;stroke:#1a1a1a;stroke-width:0.79375;stroke-linecap:butt;stroke-linejoin:round;stroke-miterlimit:4;stroke-dasharray:none;stroke-opacity:1" /><path id="path864" d="m 53.882659,13.778738 2.396666,0.0016 c -0.548543,0.371118 -1.100162,0.743638 -1.516328,1.053968 0,0 -0.219313,0.752191 -0.101244,1.101802 0.23937,0.708799 0.740288,1.234937 1.518155,1.653834 -1.072097,0.01973 -1.912069,-0.925438 -2.130138,-1.75975 -0.131396,-0.694427 0.114048,-1.019745 0.114048,-1.019745 -0.535505,-0.483688 -0.367171,-0.744687 -0.281156,-1.031724 z" style="fill:#1a1a1a;fill-opacity:1;stroke:#1a1a1a;stroke-width:0.264583px;stroke-linecap:round;stroke-linejoin:round;stroke-opacity:1" /><path id="path866" d="m 38.856887,7.2440742 c 0,0 -9.691504,2.22963 -10.10253,2.271836 -1.561195,0.160319 -3.321794,-0.03529 -5.050905,-1.020719 L 1.0583176,11.052886 3.4961198,26.659731 39.877153,15.019153 Z" style="fill:#784421;fill-opacity:1;stroke:#1a1a1a;stroke-width:2.11667;stroke-linecap:butt;stroke-linejoin:round;stroke-miterlimit:4;stroke-dasharray:none;stroke-opacity:1" /><path id="path868" d="m 41.423059,16.305355 -1.545906,-1.286202 -1.020266,-7.7750788 5.53436,-5.279008 46.55054,-0.285408 -6.29e-4,3.772303 -5.939373,9.92e-4 -0.0013,7.6248648 -9.791934,0.0016 -23.015558,0.0038 -0.642461,3.22037 z" style="fill:#353535;fill-opacity:1;stroke:#1a1a1a;stroke-width:2.11667;stroke-linecap:butt;stroke-linejoin:round;stroke-miterlimit:4;stroke-dasharray:none;stroke-opacity:1" /><path id="path870" d="m 85.001785,5.4529532 -0.0013,7.6248648 c 2.212663,2.087971 5.008474,0.245987 7.38428,-1.134931 l 15.972095,-0.0027 c 0.79414,-0.274399 0.97408,-0.726463 1.04367,-1.565275 l 10e-4,-7.6148348 c -0.0115,-0.500149 -0.17369,-1.014365 -0.82251,-1.083397 l -17.63753,0.0029 -6.29e-4,3.772303 z" style="fill:#784421;fill-opacity:1;stroke:#1a1a1a;stroke-width:2.11667;stroke-linecap:butt;stroke-linejoin:round;stroke-miterlimit:4;stroke-dasharray:none;stroke-opacity:1" /><path id="path872" d="m 109.82234,7.9700292 36.4589,-0.0061" style="fill:none;stroke:#1a1a1a;stroke-width:2.64583;stroke-linecap:butt;stroke-linejoin:miter;stroke-miterlimit:4;stroke-dasharray:none;stroke-opacity:1" /><path id="path874" d="m 141.15654,0.13279725 2.89443,-4.84e-4 0.0952,5.59158095 0.67615,1.163781 -5.99392,0.424846 z" style="fill:#1a1a1a;fill-opacity:1;stroke:#1a1a1a;stroke-width:0.264583px;stroke-linecap:butt;stroke-linejoin:miter;stroke-opacity:1" /><path style="fill:none;stroke:#1a1a1a;stroke-width:2.64583;stroke-linecap:butt;stroke-linejoin:round;stroke-miterlimit:4;stroke-dasharray:none;stroke-opacity:1" d="m 109.82302,3.8270032 12.64185,-0.0021 3.25676,4.232631" id="path876" /><path id="path880" d="m 109.40047,10.942478 33.48525,-0.0056 3.6e-4,-2.1778288" style="fill:none;stroke:#1a1a1a;stroke-width:2.11667;stroke-linecap:butt;stroke-linejoin:round;stroke-miterlimit:4;stroke-dasharray:none;stroke-opacity:1" /><path id="path882" d="m 90.941158,5.4519612 18.500352,-0.00309" style="fill:none;stroke:#1a1a1a;stroke-width:2.11667;stroke-linecap:butt;stroke-linejoin:miter;stroke-miterlimit:4;stroke-dasharray:none;stroke-opacity:1" /><path id="path884" d="m 69.376397,10.339318 13.193719,-0.0022" style="fill:none;stroke:#1a1a1a;stroke-width:2.11667;stroke-linecap:round;stroke-linejoin:miter;stroke-miterlimit:4;stroke-dasharray:none;stroke-opacity:1" /><path id="path888" d="m 85.339147,1.1069272 0.737971,-1.02169195 4.029496,0.05608 c 0,0 1.220049,0.96460795 1.106537,0.96462695 z" style="fill:#000000;stroke:none;stroke-width:0.264583px;stroke-linecap:butt;stroke-linejoin:miter;stroke-opacity:1" /><path id="path892" d="m 85.339147,1.1069272 0.737971,-1.02169195 4.029496,0.05608 c 0,0 1.220049,0.96460795 1.106537,0.96462695 z" style="fill:#1a1a1a;fill-opacity:1;stroke:none;stroke-width:0.264583px;stroke-linecap:butt;stroke-linejoin:miter;stroke-opacity:1" /><rect transform="matrix(0.99999999,-1.6691963e-4,-1.6691963e-4,0.99999999,0,0)" y="0.18473579" x="79.238319" height="0.93643653" width="5.9591303" id="rect894" style="opacity:0.999;fill:#1a1a1a;fill-opacity:1;stroke:none;stroke-width:2.11667;stroke-linecap:round;stroke-linejoin:round;stroke-miterlimit:4;stroke-dasharray:none;paint-order:stroke fill markers" /><path id="path896" d="m 79.345113,1.8427132 -6.11e-4,3.657747 -13.966727,0.0023 6.11e-4,-3.657748 z" style="fill:#4c4c4c;fill-opacity:1;stroke:#1a1a1a;stroke-width:2.11667;stroke-linecap:butt;stroke-linejoin:round;stroke-miterlimit:4;stroke-dasharray:none;stroke-opacity:1" /><circle transform="matrix(0.99999999,-1.6691963e-4,-1.6691963e-4,0.99999999,0,0)" r="2.1311285" cy="9.4962807" cx="50.479305" id="path966" style="opacity:0.999;fill:#1a1a1a;fill-opacity:1;stroke:none;stroke-width:1.05832;stroke-linecap:round;stroke-linejoin:round;stroke-miterlimit:4;stroke-dasharray:none;stroke-opacity:1;paint-order:normal" /></svg>
